<?xml version="1.0" encoding="UTF-8" standalone="no"?>
<!-- Created with Inkscape (http://www.inkscape.org/) -->

<svg
   xmlns:dc="http://purl.org/dc/elements/1.1/"
   xmlns:cc="http://creativecommons.org/ns#"
   xmlns:rdf="http://www.w3.org/1999/02/22-rdf-syntax-ns#"
   xmlns:svg="http://www.w3.org/2000/svg"
   xmlns="http://www.w3.org/2000/svg"
   xmlns:sodipodi="http://sodipodi.sourceforge.net/DTD/sodipodi-0.dtd"
   xmlns:inkscape="http://www.inkscape.org/namespaces/inkscape"
   width="96"
   height="96"
   id="svg2"
   version="1.1"
   inkscape:version="0.48.4 r9939"
   sodipodi:docname="attachment.svg">
  <defs
     id="defs4" />
  <sodipodi:namedview
     id="base"
     pagecolor="#ffffff"
     bordercolor="#666666"
     borderopacity="1.0"
     inkscape:pageopacity="0.0"
     inkscape:pageshadow="2"
     inkscape:zoom="5.3541667"
     inkscape:cx="33.167619"
     inkscape:cy="48"
     inkscape:document-units="px"
     inkscape:current-layer="layer1"
     showgrid="false"
     inkscape:window-width="1366"
     inkscape:window-height="707"
     inkscape:window-x="0"
     inkscape:window-y="25"
     inkscape:window-maximized="1" />
  <metadata
     id="metadata7">
    <rdf:RDF>
      <cc:Work
         rdf:about="">
        <dc:format>image/svg+xml</dc:format>
        <dc:type
           rdf:resource="http://purl.org/dc/dcmitype/StillImage" />
        <dc:title></dc:title>
      </cc:Work>
    </rdf:RDF>
  </metadata>
  <g
     inkscape:label="Layer 1"
     inkscape:groupmode="layer"
     id="layer1"
     transform="translate(0,-956.36218)">
    <path
       style="fill:none;stroke:#000000;stroke-width:6;stroke-linecap:round;stroke-linejoin:miter;stroke-miterlimit:4;stroke-opacity:1;stroke-dasharray:none"
       d="m -147.05802,1020.7142 0,-34.25536 c 0,0 -0.48141,-9.52957 8.17844,-9.52957 8.65984,0 8.17842,9.52957 8.17842,9.52957 l 0,51.02876 c 0,0 -1.31439,9.3903 -8.17842,9.9223 -20.59386,0.3092 -18.29999,-19.7096 -18.29999,-19.7096 l 0,-45.96635 c 0,0 -0.47951,-16.19965 18.29999,-16.53714 18.77949,-0.33749 18.29998,16.53714 18.29998,16.53714 l 0,38.98025"
       id="path3757"
       inkscape:connector-curvature="0"
       sodipodi:nodetypes="cczccccczcc"
       inkscape:export-xdpi="97.036232"
       inkscape:export-ydpi="97.036232" />
    <path
       style="fill:#000000;fill-opacity:1;stroke:none"
       d="m -83.673151,1015.9419 0,-35.85988 c 0,0 0.202173,-4.03545 5.042801,-4.10895 4.840628,-0.0735 4.856031,4.85603 4.856031,4.85603 l 0,54.3502 c 0,0 1.053994,5.929 -6.723735,5.7899 -14.688235,-0.8861 -13.447471,-13.0739 -13.447471,-13.0739 l 0.186451,-52.68098 c 0,0 -1.22278,-11.42163 15.128724,-11.00778 16.351504,0.41384 14.567775,12.31517 14.567775,12.31517 l 0.187089,41.28799 5.603113,-0.1868 -0.18709,-41.84827 c 0,0 1.268931,-17.18546 -20.917969,-17.35798 -22.186898,-0.17252 -20.358295,16.98444 -20.358295,16.98444 l 3.19e-4,53.98841 c 0,0 -0.442072,17.6246 19.610895,17.1828 13.142462,-0.4418 12.513618,-11.393 12.513618,-11.393 l 0.186771,-55.09728 c 0,0 -0.248057,-10.20831 -11.766538,-10.0856 -11.51848,0.12271 -10.459143,9.89883 -10.459143,9.89883 l 0,36.60705 z"
       id="path4025"
       inkscape:connector-curvature="0"
       sodipodi:nodetypes="cczccccczcccczccccczccc" />
    <path
       style="fill:#000000;fill-opacity:1;stroke:none"
       d="m 33.304018,1014.175 29.47727,-29.47711 c 0,0 3.483377,-3.151 7.522849,0.76763 4.039472,3.91864 10e-7,7.98344 10e-7,7.98344 l -44.676534,44.67644 c 0,0 -4.007314,5.7401 -10.286358,-0.7677 -11.3455212,-12.8023 -0.30708,-21.8009 -0.30708,-21.8009 l 43.45768,-43.15097 c 0,0 8.383577,-10.39386 21.48452,3.38747 13.100951,13.78132 1.851668,22.09814 1.851668,22.09814 l -33.785451,34.09286 4.759378,4.4522 34.246007,-34.5535 c 0,0 15.169732,-13.08346 -2.926353,-31.46317 -18.096083,-18.37971 -30.696177,-2.77335 -30.696177,-2.77335 L 9.0465612,1012.0257 c 0,0 -14.8510208,14.1243 1.9959238,30.2449 11.166427,10.4401 19.651527,0.9212 19.651527,0.9212 l 45.444171,-45.13706 c 0,0 8.187447,-8.59521 -1.381751,-17.96268 -9.569198,-9.36745 -16.734498,-0.46058 -16.734498,-0.46058 l -30.091452,30.09132 z"
       id="path4025-6"
       inkscape:connector-curvature="0"
       sodipodi:nodetypes="cczccccczcccczccccczccc" />
  </g>
</svg>
