<?xml version="1.0" encoding="UTF-8" standalone="no"?>
<!-- Created with Inkscape (http://www.inkscape.org/) -->

<svg
   xmlns:dc="http://purl.org/dc/elements/1.1/"
   xmlns:cc="http://creativecommons.org/ns#"
   xmlns:rdf="http://www.w3.org/1999/02/22-rdf-syntax-ns#"
   xmlns:svg="http://www.w3.org/2000/svg"
   xmlns="http://www.w3.org/2000/svg"
   xmlns:sodipodi="http://sodipodi.sourceforge.net/DTD/sodipodi-0.dtd"
   xmlns:inkscape="http://www.inkscape.org/namespaces/inkscape"
   width="100"
   height="100"
   id="svg2"
   version="1.1"
   inkscape:version="0.48.4 r9939"
   sodipodi:docname="icons.svg">
  <defs
     id="defs4">
    <inkscape:perspective
       id="perspective2840"
       inkscape:persp3d-origin="400 : 50.553711 : 1"
       inkscape:vp_z="800 : 75.830566 : 1"
       inkscape:vp_y="0 : 1000 : 0"
       inkscape:vp_x="0 : 75.830566 : 1"
       sodipodi:type="inkscape:persp3d" />
  </defs>
  <sodipodi:namedview
     id="base"
     pagecolor="#ffffff"
     bordercolor="#666666"
     borderopacity="1.0"
     inkscape:pageopacity="0.0"
     inkscape:pageshadow="2"
     inkscape:zoom="3.115"
     inkscape:cx="55.918083"
     inkscape:cy="41.682183"
     inkscape:document-units="px"
     inkscape:current-layer="layer1"
     showgrid="false"
     inkscape:window-width="1280"
     inkscape:window-height="988"
     inkscape:window-x="0"
     inkscape:window-y="0"
     inkscape:window-maximized="1" />
  <metadata
     id="metadata7">
    <rdf:RDF>
      <cc:Work
         rdf:about="">
        <dc:format>image/svg+xml</dc:format>
        <dc:type
           rdf:resource="http://purl.org/dc/dcmitype/StillImage" />
        <dc:title />
      </cc:Work>
    </rdf:RDF>
  </metadata>
  <g
     inkscape:label="Layer 1"
     inkscape:groupmode="layer"
     id="layer1"
     transform="translate(0,-952.3622)">
    <g
       id="g3009">
      <rect
         rx="3.4199998"
         ry="3"
         y="1020.3622"
         x="0"
         height="32"
         width="114"
         id="rect3890"
         style="color:#000000;fill:#df4a32;fill-opacity:1;fill-rule:nonzero;stroke:none;stroke-width:10;marker:none;visibility:visible;display:inline;overflow:visible;enable-background:accumulate" />
      <g
         transform="matrix(0.23546587,0,0,0.23546587,-0.34038948,1020.8631)"
         id="g3839">
        <path
           id="path3841"
           d="m 70.479,71.845 -3.983,-3.093 c -1.213,-1.006 -2.872,-2.334 -2.872,-4.765 0,-2.441 1.659,-3.993 3.099,-5.43 4.64,-3.652 9.276,-7.539 9.276,-15.73 0,-8.423 -5.3,-12.854 -7.84,-14.956 h 6.849 l 7.189,-4.517 H 60.418 c -5.976,0 -14.588,1.414 -20.893,6.619 -4.752,4.1 -7.07,9.753 -7.07,14.842 0,8.639 6.633,17.396 18.346,17.396 1.106,0 2.316,-0.109 3.534,-0.222 -0.547,1.331 -1.1,2.439 -1.1,4.32 0,3.431 1.763,5.535 3.317,7.528 -4.977,0.342 -14.268,0.893 -21.117,5.103 -6.523,3.879 -8.508,9.525 -8.508,13.51 0,8.202 7.731,15.842 23.762,15.842 19.01,0 29.074,-10.519 29.074,-20.932 10e-4,-7.651 -4.419,-11.417 -9.284,-15.515 z M 56,59.107 c -9.51,0 -13.818,-12.294 -13.818,-19.712 0,-2.888 0.547,-5.87 2.428,-8.199 1.773,-2.218 4.861,-3.657 7.744,-3.657 9.168,0 13.923,12.404 13.923,20.382 0,1.996 -0.22,5.533 -2.762,8.09 -1.778,1.774 -4.753,3.096 -7.515,3.096 z m 0.109,44.543 c -11.826,0 -19.452,-5.657 -19.452,-13.523 0,-7.864 7.071,-10.524 9.504,-11.405 4.64,-1.561 10.611,-1.779 11.607,-1.779 1.105,0 1.658,0 2.538,0.111 8.407,5.983 12.056,8.965 12.056,14.629 0,6.859 -5.639,11.967 -16.253,11.967 z"
           inkscape:connector-curvature="0"
           style="fill:#ffffff" />
        <polygon
           id="polygon3843"
           points="81.866,58.938 81.866,64.469 92.923,64.469 92.923,75.612 98.393,75.612 98.393,64.469 109.506,64.469 109.506,58.938 98.393,58.938 98.393,47.863 92.923,47.863 92.923,58.938 "
           style="fill:#ffffff" />
      </g>
      <path
         sodipodi:nodetypes="cc"
         inkscape:connector-curvature="0"
         id="path3892"
         d="m 32.394865,1047.3622 0,-22"
         style="fill:none;stroke:#000000;stroke-width:1px;stroke-linecap:butt;stroke-linejoin:miter;stroke-opacity:0.29302326" />
      <text
         sodipodi:linespacing="125%"
         id="text3894"
         y="1041.5184"
         x="37.023438"
         style="font-size:49.23077011000000169px;font-style:normal;font-variant:normal;font-weight:normal;font-stretch:normal;line-height:125%;letter-spacing:0px;word-spacing:0px;fill:#ffffff;fill-opacity:1;stroke:none;font-family:Bitstream Charter;-inkscape-font-specification:Bitstream Charter"
         xml:space="preserve"><tspan
           style="font-size:16px;font-style:normal;font-variant:normal;font-weight:normal;font-stretch:normal;font-family:Open Sans;-inkscape-font-specification:Open Sans;fill:#ffffff;fill-opacity:1"
           y="1041.5184"
           x="37.023438"
           id="tspan3896"
           sodipodi:role="line">Google</tspan></text>
    </g>
    <g
       id="g3018">
      <rect
         rx="3.4199998"
         ry="3"
         y="982.36218"
         x="0"
         height="32"
         width="114"
         id="rect3890-4"
         style="color:#000000;fill:#3b5998;fill-opacity:1;fill-rule:nonzero;stroke:none;stroke-width:10;marker:none;visibility:visible;display:inline;overflow:visible;enable-background:accumulate" />
      <path
         sodipodi:nodetypes="cc"
         inkscape:connector-curvature="0"
         id="path3892-2"
         d="m 32.394865,1009.3622 0,-22"
         style="fill:none;stroke:#000000;stroke-width:1px;stroke-linecap:butt;stroke-linejoin:miter;stroke-opacity:0.29302326" />
      <text
         sodipodi:linespacing="125%"
         id="text3894-4"
         y="1003.5184"
         x="37.023438"
         style="font-size:49.23077011000000169px;font-style:normal;font-variant:normal;font-weight:normal;font-stretch:normal;line-height:125%;letter-spacing:0px;word-spacing:0px;fill:#ffffff;fill-opacity:1;stroke:none;font-family:Bitstream Charter;-inkscape-font-specification:Bitstream Charter"
         xml:space="preserve"><tspan
           style="font-size:16px;font-style:normal;font-variant:normal;font-weight:normal;font-stretch:normal;font-family:Open Sans;-inkscape-font-specification:Open Sans;fill:#ffffff;fill-opacity:1"
           y="1003.5184"
           x="37.023438"
           id="tspan3896-6"
           sodipodi:role="line">Facebook</tspan></text>
      <path
         style="fill:#ffffff;fill-opacity:1"
         id="path3991"
         d="M 22.923034,988.363 H 9.3240312 C 7.5567775,988.363 6,989.64699 6,991.41419 v 13.59901 c 0,1.7672 1.5567775,3.3483 3.3240312,3.3483 h 8.4200578 c -0.01575,-2.6211 0.0033,-5.5401 -0.009,-8.0764 -0.537052,-0.01 -1.074587,-0.033 -1.611631,-0.042 0.0017,-0.8963 8.25e-4,-1.8113 8.33e-4,-2.70757 0.536702,-0.008 1.073754,-0.008 1.610465,-0.0133 0.01642,-0.8716 -0.01642,-1.74862 0.01717,-2.61947 0.0535,-0.68953 0.316435,-1.38648 0.831972,-1.86286 0.624179,-0.59404 1.511639,-0.79594 2.348711,-0.82094 0.885035,-0.008 1.770162,0 2.655639,0 0.0033,0.93393 0.0033,1.86794 -3.92e-4,2.80179 -0.572241,0 -1.144816,0 -1.717058,0 -0.362498,-0.0225 -0.735146,0.25232 -0.801107,0.61204 -0.0086,0.62495 -0.0033,1.25024 -0.0025,1.87503 0.839013,0 1.678368,0 2.51739,0 -0.06133,0.90418 -0.173829,1.80408 -0.305077,2.70058 -0.741304,0.01 -1.483092,0.073 -2.224012,0.077 -0.0067,2.5355 0.0017,5.4557 -0.0042,8.0768 h 1.871905 c 1.767245,0 3.075499,-1.5811 3.075499,-3.3483 v -13.59888 c 5e-5,-1.76721 -1.308204,-3.0512 -3.075449,-3.0512 z"
         inkscape:connector-curvature="0" />
    </g>
    <g
       id="g3025">
      <rect
         rx="3.4199998"
         ry="3"
         y="940.36218"
         x="0"
         height="32"
         width="114"
         id="rect3890-4-6"
         style="color:#000000;fill:#6e329d;fill-opacity:1;fill-rule:nonzero;stroke:none;stroke-width:10;marker:none;visibility:visible;display:inline;overflow:visible;enable-background:accumulate" />
      <path
         sodipodi:nodetypes="cc"
         inkscape:connector-curvature="0"
         id="path3892-2-5"
         d="m 32.394865,967.3622 0,-21.99998"
         style="fill:none;stroke:#000000;stroke-width:1px;stroke-linecap:butt;stroke-linejoin:miter;stroke-opacity:0.29302326" />
      <text
         sodipodi:linespacing="125%"
         id="text3894-4-0"
         y="961.51837"
         x="37.023438"
         style="font-size:49.23077011000000169px;font-style:normal;font-variant:normal;font-weight:normal;font-stretch:normal;line-height:125%;letter-spacing:0px;word-spacing:0px;fill:#ffffff;fill-opacity:1;stroke:none;font-family:Bitstream Charter;-inkscape-font-specification:Bitstream Charter"
         xml:space="preserve"><tspan
           style="font-size:16px;font-style:normal;font-variant:normal;font-weight:normal;font-stretch:normal;font-family:Open Sans;-inkscape-font-specification:Open Sans;fill:#ffffff;fill-opacity:1"
           y="961.51837"
           x="37.023438"
           id="tspan3896-6-7"
           sodipodi:role="line">Yahoo!</tspan></text>
      <g
         transform="matrix(0.06691753,0,0,0.06691753,-2.7604335,934.73516)"
         id="g4102"
         style="fill:#ffffff;fill-opacity:1;overflow:visible">
        <path
           inkscape:connector-curvature="0"
           id="path2217"
           d="m 420.92643,272.27045 c -5.2009,0.51386 -26.85186,5.3644 -34.12897,6.92416 -7.79227,2.0736 -78.98414,57.07497 -83.66081,70.5807 -1.03681,4.67406 -1.5565,11.86553 -1.5565,18.62359 l -0.52165,10.91566 c 0,7.78838 2.1638,20.34945 3.19995,27.10231 4.68055,1.04329 38.55454,0.13235 44.78836,1.16786 l -0.7669,13.9703 c -6.09108,-0.4438 -49.10557,-0.33998 -73.68009,-0.33998 -12.47476,0 -52.57608,1.37548 -64.89707,1.00436 l 2.32924,-13.28514 c 6.75611,-0.52424 34.72913,1.2068 40.8786,-5.28394 3.05461,-3.22072 2.08139,-6.67242 2.08139,-25.37646 v -8.83167 c 0,-4.15761 0,-11.95637 -1.04265,-19.23347 -2.59656,-7.79617 -65.30129,-86.09 -81.40942,-98.55763 -4.68055,-1.55715 -33.99013,-4.4885 -41.26399,-6.05084 l -0.36204,-11.96805 c 3.62883,-1.81928 36.22075,0.44249 67.8492,-0.72797 20.78673,-0.76819 68.21511,0 74.06677,0.69684 l -1.49941,10.54713 c -6.23382,1.56105 -36.26552,2.13849 -44.06168,4.2147 20.26768,30.13876 52.31202,68.94049 62.70668,84.01118 5.71931,-8.31262 55.95445,-42.8737 57.51162,-54.82488 -7.79747,-1.56495 -33.60668,-5.27876 -37.76559,-5.27876 l -2.46874,-13.60696 c 7.07534,-1.10687 44.27838,0 62.77416,0 15.96214,0 50.07036,0 59.76235,0.79416 l -8.86281,12.8128"
           style="fill:#ffffff;fill-opacity:1" />
      </g>
    </g>
  </g>
</svg>
