<?xml version="1.0" encoding="UTF-8" standalone="no"?>
<!-- Created with Inkscape (http://www.inkscape.org/) -->

<svg
   xmlns:dc="http://purl.org/dc/elements/1.1/"
   xmlns:cc="http://creativecommons.org/ns#"
   xmlns:rdf="http://www.w3.org/1999/02/22-rdf-syntax-ns#"
   xmlns:svg="http://www.w3.org/2000/svg"
   xmlns="http://www.w3.org/2000/svg"
   xmlns:sodipodi="http://sodipodi.sourceforge.net/DTD/sodipodi-0.dtd"
   xmlns:inkscape="http://www.inkscape.org/namespaces/inkscape"
   width="114"
   height="32"
   id="svg4122"
   version="1.1"
   inkscape:version="0.48.4 r9939"
   sodipodi:docname="yahoosignin.svg"
   inkscape:export-filename="/home/ekow/Projects/paanoo/assets/images/yahoo.png"
   inkscape:export-xdpi="90"
   inkscape:export-ydpi="90">
  <defs
     id="defs4124" />
  <sodipodi:namedview
     id="base"
     pagecolor="#ffffff"
     bordercolor="#666666"
     borderopacity="1.0"
     inkscape:pageopacity="0.0"
     inkscape:pageshadow="2"
     inkscape:zoom="5.9035088"
     inkscape:cx="57"
     inkscape:cy="16"
     inkscape:document-units="px"
     inkscape:current-layer="layer1"
     showgrid="false"
     inkscape:window-width="1019"
     inkscape:window-height="699"
     inkscape:window-x="1"
     inkscape:window-y="72"
     inkscape:window-maximized="0" />
  <metadata
     id="metadata4127">
    <rdf:RDF>
      <cc:Work
         rdf:about="">
        <dc:format>image/svg+xml</dc:format>
        <dc:type
           rdf:resource="http://purl.org/dc/dcmitype/StillImage" />
        <dc:title></dc:title>
      </cc:Work>
    </rdf:RDF>
  </metadata>
  <g
     inkscape:label="Layer 1"
     inkscape:groupmode="layer"
     id="layer1"
     transform="translate(0,-1020.3622)">
    <g
       transform="translate(0,80.000017)"
       id="g3025">
      <rect
         rx="3.4199998"
         ry="3"
         y="940.36218"
         x="0"
         height="32"
         width="114"
         id="rect3890-4-6"
         style="color:#000000;fill:#6e329d;fill-opacity:1;fill-rule:nonzero;stroke:none;stroke-width:10;marker:none;visibility:visible;display:inline;overflow:visible;enable-background:accumulate" />
      <path
         sodipodi:nodetypes="cc"
         inkscape:connector-curvature="0"
         id="path3892-2-5"
         d="m 32.394865,967.3622 0,-21.99998"
         style="fill:none;stroke:#000000;stroke-width:1px;stroke-linecap:butt;stroke-linejoin:miter;stroke-opacity:0.29302326" />
      <text
         sodipodi:linespacing="125%"
         id="text3894-4-0"
         y="961.51837"
         x="37.023438"
         style="font-size:49.23077011px;font-style:normal;font-variant:normal;font-weight:normal;font-stretch:normal;line-height:125%;letter-spacing:0px;word-spacing:0px;fill:#ffffff;fill-opacity:1;stroke:none;font-family:Bitstream Charter;-inkscape-font-specification:Bitstream Charter"
         xml:space="preserve"><tspan
           style="font-size:16px;font-style:normal;font-variant:normal;font-weight:normal;font-stretch:normal;fill:#ffffff;fill-opacity:1;font-family:Open Sans;-inkscape-font-specification:Open Sans"
           y="961.51837"
           x="37.023438"
           id="tspan3896-6-7"
           sodipodi:role="line">Yahoo!</tspan></text>
      <g
         transform="matrix(0.06691753,0,0,0.06691753,-2.7604335,934.73516)"
         id="g4102"
         style="fill:#ffffff;fill-opacity:1;overflow:visible">
        <path
           inkscape:connector-curvature="0"
           id="path2217"
           d="m 420.92643,272.27045 c -5.2009,0.51386 -26.85186,5.3644 -34.12897,6.92416 -7.79227,2.0736 -78.98414,57.07497 -83.66081,70.5807 -1.03681,4.67406 -1.5565,11.86553 -1.5565,18.62359 l -0.52165,10.91566 c 0,7.78838 2.1638,20.34945 3.19995,27.10231 4.68055,1.04329 38.55454,0.13235 44.78836,1.16786 l -0.7669,13.9703 c -6.09108,-0.4438 -49.10557,-0.33998 -73.68009,-0.33998 -12.47476,0 -52.57608,1.37548 -64.89707,1.00436 l 2.32924,-13.28514 c 6.75611,-0.52424 34.72913,1.2068 40.8786,-5.28394 3.05461,-3.22072 2.08139,-6.67242 2.08139,-25.37646 v -8.83167 c 0,-4.15761 0,-11.95637 -1.04265,-19.23347 -2.59656,-7.79617 -65.30129,-86.09 -81.40942,-98.55763 -4.68055,-1.55715 -33.99013,-4.4885 -41.26399,-6.05084 l -0.36204,-11.96805 c 3.62883,-1.81928 36.22075,0.44249 67.8492,-0.72797 20.78673,-0.76819 68.21511,0 74.06677,0.69684 l -1.49941,10.54713 c -6.23382,1.56105 -36.26552,2.13849 -44.06168,4.2147 20.26768,30.13876 52.31202,68.94049 62.70668,84.01118 5.71931,-8.31262 55.95445,-42.8737 57.51162,-54.82488 -7.79747,-1.56495 -33.60668,-5.27876 -37.76559,-5.27876 l -2.46874,-13.60696 c 7.07534,-1.10687 44.27838,0 62.77416,0 15.96214,0 50.07036,0 59.76235,0.79416 l -8.86281,12.8128"
           style="fill:#ffffff;fill-opacity:1" />
      </g>
    </g>
  </g>
</svg>
