<?xml version="1.0" encoding="UTF-8" standalone="no"?>
<!-- Created with Inkscape (http://www.inkscape.org/) -->

<svg
   xmlns:dc="http://purl.org/dc/elements/1.1/"
   xmlns:cc="http://creativecommons.org/ns#"
   xmlns:rdf="http://www.w3.org/1999/02/22-rdf-syntax-ns#"
   xmlns:svg="http://www.w3.org/2000/svg"
   xmlns="http://www.w3.org/2000/svg"
   xmlns:sodipodi="http://sodipodi.sourceforge.net/DTD/sodipodi-0.dtd"
   xmlns:inkscape="http://www.inkscape.org/namespaces/inkscape"
   width="96"
   height="96"
   id="svg2"
   version="1.1"
   inkscape:version="0.48.5 r10040"
   sodipodi:docname="bold.svg"
   inkscape:export-filename="/home/ekow/Projects/paanoo/assets/images/bold.png"
   inkscape:export-xdpi="15"
   inkscape:export-ydpi="15">
  <defs
     id="defs4" />
  <sodipodi:namedview
     id="base"
     pagecolor="#ffffff"
     bordercolor="#666666"
     borderopacity="1.0"
     inkscape:pageopacity="0.0"
     inkscape:pageshadow="2"
     inkscape:zoom="5.3541667"
     inkscape:cx="48.373541"
     inkscape:cy="48"
     inkscape:document-units="px"
     inkscape:current-layer="layer1"
     showgrid="false"
     inkscape:window-width="1440"
     inkscape:window-height="864"
     inkscape:window-x="0"
     inkscape:window-y="0"
     inkscape:window-maximized="1" />
  <metadata
     id="metadata7">
    <rdf:RDF>
      <cc:Work
         rdf:about="">
        <dc:format>image/svg+xml</dc:format>
        <dc:type
           rdf:resource="http://purl.org/dc/dcmitype/StillImage" />
        <dc:title />
      </cc:Work>
    </rdf:RDF>
  </metadata>
  <g
     inkscape:label="Layer 1"
     inkscape:groupmode="layer"
     id="layer1"
     transform="translate(0,-956.36218)">
    <g
       style="font-size:134.12817383px;font-style:normal;font-variant:normal;font-weight:normal;font-stretch:normal;line-height:125%;letter-spacing:0px;word-spacing:0px;fill:#000000;fill-opacity:1;stroke:none;font-family:Bitstream Charter;-inkscape-font-specification:Bitstream Charter"
       id="text4469">
      <path
         d="m 10.378,959.36218 0,6.57228 7.913562,0.67064 2.146051,1.87779 0,71.49031 -2.146051,2.1461 -7.913562,0.6706 0,6.5723 41.445606,0 c 21.996998,0 33.8003,-9.389 33.8003,-26.2891 0,-13.1446 -8.718347,-21.3264 -24.411328,-21.5947 12.742164,-3.35318 19.180329,-10.59611 19.180329,-21.0581 0,-13.94931 -9.925505,-21.05812 -29.776455,-21.05812 l -40.238452,0 m 27.496276,39.97019 0,-32.45901 c 1.877792,-0.13413 3.621462,-0.26826 5.365127,-0.26826 12.608036,0 18.643816,4.96275 18.643816,15.42474 0,12.07152 -6.438166,17.43666 -20.387482,17.43666 -1.207153,0 -2.414309,0 -3.621461,-0.13413 m 0,42.38453 0,-34.6051 c 3.755585,-0.2682 6.706411,-0.2682 8.852459,-0.2682 13.412804,0 20.119226,5.6333 20.119226,17.0342 0,12.8763 -6.97468,18.1073 -22.533533,18.1073 -2.01192,0 -4.157975,-0.1341 -6.438152,-0.2682"
         style="font-weight:bold;font-family:Bitstream Charter;-inkscape-font-specification:Bitstream Charter Bold;fill:#000000;fill-opacity:1"
         id="path3067" />
    </g>
  </g>
</svg>
