<?xml version="1.0" encoding="UTF-8" standalone="no"?>
<!-- Created with Inkscape (http://www.inkscape.org/) -->

<svg
   xmlns:dc="http://purl.org/dc/elements/1.1/"
   xmlns:cc="http://creativecommons.org/ns#"
   xmlns:rdf="http://www.w3.org/1999/02/22-rdf-syntax-ns#"
   xmlns:svg="http://www.w3.org/2000/svg"
   xmlns="http://www.w3.org/2000/svg"
   xmlns:sodipodi="http://sodipodi.sourceforge.net/DTD/sodipodi-0.dtd"
   xmlns:inkscape="http://www.inkscape.org/namespaces/inkscape"
   width="96"
   height="96"
   id="svg2"
   version="1.1"
   inkscape:version="0.48.4 r9939"
   sodipodi:docname="New document 1">
  <defs
     id="defs4" />
  <sodipodi:namedview
     id="base"
     pagecolor="#ffffff"
     bordercolor="#666666"
     borderopacity="1.0"
     inkscape:pageopacity="0.0"
     inkscape:pageshadow="2"
     inkscape:zoom="6.9895833"
     inkscape:cx="36.816692"
     inkscape:cy="48"
     inkscape:document-units="px"
     inkscape:current-layer="layer1"
     showgrid="false"
     inkscape:window-width="1440"
     inkscape:window-height="864"
     inkscape:window-x="0"
     inkscape:window-y="0"
     inkscape:window-maximized="1" />
  <metadata
     id="metadata7">
    <rdf:RDF>
      <cc:Work
         rdf:about="">
        <dc:format>image/svg+xml</dc:format>
        <dc:type
           rdf:resource="http://purl.org/dc/dcmitype/StillImage" />
        <dc:title></dc:title>
      </cc:Work>
    </rdf:RDF>
  </metadata>
  <g
     inkscape:label="Layer 1"
     inkscape:groupmode="layer"
     id="layer1"
     transform="translate(0,-956.36218)">
    <path
       style="color:#000000;fill:#000000;fill-opacity:1;fill-rule:nonzero;stroke:none;stroke-width:10;marker:none;visibility:visible;display:inline;overflow:visible;enable-background:accumulate"
       d="M 48 3 C 23.147186 3 3 23.147187 3 48 C 3 72.852813 23.147186 93 48 93 C 72.852814 93 93 72.852813 93 48 C 93 23.147187 72.852814 3 48 3 z M 68.28125 22.78125 L 77.96875 25.21875 L 76.75 30.0625 L 70.03125 56.875 L 69.0625 60.6875 L 65.15625 60.6875 L 38.25 60.6875 L 34.15625 60.6875 L 33.34375 56.65625 L 28.75 33.84375 L 24.09375 33.84375 L 19.09375 33.84375 L 19.09375 23.84375 L 24.09375 23.84375 L 32.84375 23.84375 L 36.9375 23.84375 L 37.75 27.875 L 42.34375 50.6875 L 61.25 50.6875 L 67.0625 27.625 L 68.28125 22.78125 z M 42.3125 67.03125 C 45.149552 67.03125 47.46875 69.330259 47.46875 72.15625 C 47.46875 74.982241 45.149552 77.28125 42.3125 77.28125 C 39.475448 77.28125 37.1875 74.982241 37.1875 72.15625 C 37.1875 69.330259 39.475448 67.03125 42.3125 67.03125 z M 60.375 67.03125 C 63.212052 67.03125 65.53125 69.330259 65.53125 72.15625 C 65.53125 74.982241 63.212052 77.28125 60.375 77.28125 C 57.537948 77.28125 55.25 74.982241 55.25 72.15625 C 55.25 69.330259 57.537948 67.03125 60.375 67.03125 z "
       transform="translate(0,956.36218)"
       id="path3782" />
  </g>
</svg>
