<?xml version="1.0" encoding="UTF-8" standalone="no"?>
<!-- Created with Inkscape (http://www.inkscape.org/) -->

<svg
   xmlns:dc="http://purl.org/dc/elements/1.1/"
   xmlns:cc="http://creativecommons.org/ns#"
   xmlns:rdf="http://www.w3.org/1999/02/22-rdf-syntax-ns#"
   xmlns:svg="http://www.w3.org/2000/svg"
   xmlns="http://www.w3.org/2000/svg"
   xmlns:sodipodi="http://sodipodi.sourceforge.net/DTD/sodipodi-0.dtd"
   xmlns:inkscape="http://www.inkscape.org/namespaces/inkscape"
   width="96"
   height="96"
   id="svg2"
   version="1.1"
   inkscape:version="0.48.5 r10040"
   sodipodi:docname="picture.svg"
   inkscape:export-filename="/home/ekow/Projects/paanoo/assets/images/picture_tiny.png"
   inkscape:export-xdpi="15"
   inkscape:export-ydpi="15">
  <defs
     id="defs4" />
  <sodipodi:namedview
     id="base"
     pagecolor="#ffffff"
     bordercolor="#666666"
     borderopacity="1.0"
     inkscape:pageopacity="0.0"
     inkscape:pageshadow="2"
     inkscape:zoom="4"
     inkscape:cx="-5.370992"
     inkscape:cy="31.840501"
     inkscape:document-units="px"
     inkscape:current-layer="layer1"
     showgrid="false"
     inkscape:window-width="1600"
     inkscape:window-height="839"
     inkscape:window-x="0"
     inkscape:window-y="25"
     inkscape:window-maximized="1" />
  <metadata
     id="metadata7">
    <rdf:RDF>
      <cc:Work
         rdf:about="">
        <dc:format>image/svg+xml</dc:format>
        <dc:type
           rdf:resource="http://purl.org/dc/dcmitype/StillImage" />
        <dc:title></dc:title>
      </cc:Work>
    </rdf:RDF>
  </metadata>
  <g
     inkscape:label="Layer 1"
     inkscape:groupmode="layer"
     id="layer1"
     transform="translate(0,-956.36218)">
    <path
       style="color:#000000;fill:#000000;fill-opacity:1;stroke:none;stroke-width:1.49999988000000006;stroke-linecap:butt;stroke-linejoin:round;stroke-miterlimit:0;stroke-opacity:1;stroke-dasharray:none;stroke-dashoffset:0;marker:none;visibility:visible;display:inline;overflow:visible;enable-background:accumulate"
       d="M 32.9375 14.25 L 29.34375 28.9375 L 3.75 35.25 L 3.75 81.75 L 92.25 81.75 L 92.25 34.875 L 68.15625 28.9375 L 64.5625 14.25 L 32.9375 14.25 z M 48 29.5 C 60.702549 29.5 71 39.79741 71 52.5 C 71 65.2025 60.702549 75.5 48 75.5 C 35.297451 75.5 25 65.2025 25 52.5 C 25 39.79741 35.297451 29.5 48 29.5 z M 75.09375 36.375 C 76.474462 36.375 77.59375 37.494288 77.59375 38.875 C 77.59375 40.255712 76.474462 41.375 75.09375 41.375 C 73.713038 41.375 72.59375 40.255712 72.59375 38.875 C 72.59375 37.494288 73.713038 36.375 75.09375 36.375 z "
       transform="translate(0,956.36218)"
       id="rect4079" />
    <path
       sodipodi:type="arc"
       style="color:#000000;fill:#000000;fill-opacity:1;fill-rule:nonzero;stroke:none;stroke-width:1.50000000000000000;marker:none;visibility:visible;display:inline;overflow:visible;enable-background:accumulate"
       id="path4081"
       sodipodi:cx="42.393391"
       sodipodi:cy="33.532482"
       sodipodi:rx="18.357262"
       sodipodi:ry="18.357262"
       d="m 60.750652,33.532482 c 0,10.138436 -8.218826,18.357262 -18.357261,18.357262 -10.138436,0 -18.357262,-8.218826 -18.357262,-18.357262 0,-10.138436 8.218826,-18.357262 18.357262,-18.357262 10.138435,0 18.357261,8.218826 18.357261,18.357262 z"
       transform="matrix(0.81711533,0,0,0.81711533,13.35971,981.45527)" />
    <rect
       style="color:#000000;fill:#000000;fill-opacity:1;fill-rule:nonzero;stroke:none;stroke-width:1.50000000000000000;marker:none;visibility:visible;display:inline;overflow:visible;enable-background:accumulate"
       id="rect4171"
       width="15.501034"
       height="6.1730051"
       x="-242.20618"
       y="946.90228"
       transform="matrix(0.96937115,-0.24560045,0.25371303,0.96727953,0,0)" />
  </g>
</svg>
