<?xml version="1.0" encoding="UTF-8" standalone="no"?>
<!-- Created with Inkscape (http://www.inkscape.org/) -->

<svg
   xmlns:dc="http://purl.org/dc/elements/1.1/"
   xmlns:cc="http://creativecommons.org/ns#"
   xmlns:rdf="http://www.w3.org/1999/02/22-rdf-syntax-ns#"
   xmlns:svg="http://www.w3.org/2000/svg"
   xmlns="http://www.w3.org/2000/svg"
   xmlns:sodipodi="http://sodipodi.sourceforge.net/DTD/sodipodi-0.dtd"
   xmlns:inkscape="http://www.inkscape.org/namespaces/inkscape"
   width="96"
   height="96"
   id="svg2"
   version="1.1"
   inkscape:version="0.48.4 r9939"
   sodipodi:docname="picture.svg"
   inkscape:export-filename="/home/ekow/Projects/simpaprint/new_editor/images/picture.png"
   inkscape:export-xdpi="45"
   inkscape:export-ydpi="45">
  <defs
     id="defs4" />
  <sodipodi:namedview
     id="base"
     pagecolor="#ffffff"
     bordercolor="#666666"
     borderopacity="1.0"
     inkscape:pageopacity="0.0"
     inkscape:pageshadow="2"
     inkscape:zoom="4"
     inkscape:cx="38.379008"
     inkscape:cy="31.840501"
     inkscape:document-units="px"
     inkscape:current-layer="layer1"
     showgrid="false"
     inkscape:window-width="1366"
     inkscape:window-height="707"
     inkscape:window-x="0"
     inkscape:window-y="25"
     inkscape:window-maximized="1" />
  <metadata
     id="metadata7">
    <rdf:RDF>
      <cc:Work
         rdf:about="">
        <dc:format>image/svg+xml</dc:format>
        <dc:type
           rdf:resource="http://purl.org/dc/dcmitype/StillImage" />
        <dc:title></dc:title>
      </cc:Work>
    </rdf:RDF>
  </metadata>
  <g
     inkscape:label="Layer 1"
     inkscape:groupmode="layer"
     id="layer1"
     transform="translate(0,-956.36218)">
    <path
       style="color:#000000;fill:#000000;fill-opacity:1;stroke:#000000;stroke-width:1.49999988;stroke-linecap:butt;stroke-linejoin:round;stroke-miterlimit:0;stroke-opacity:1;stroke-dasharray:none;stroke-dashoffset:0;marker:none;visibility:visible;display:inline;overflow:visible;enable-background:accumulate"
       d="m 32.9375,970.61216 -3.59375,14.6875 -25.59375,6.3125 0,46.50004 88.5,0 0,-46.87504 -24.09375,-5.9375 -3.59375,-14.6875 z M 48,985.86216 c 12.702549,0 23,10.29745 23,23.00004 0,12.7025 -10.297451,23 -23,23 -12.702549,0 -23,-10.2975 -23,-23 0,-12.70259 10.297451,-23.00004 23,-23.00004 z"
       id="rect4079"
       inkscape:connector-curvature="0"
       sodipodi:nodetypes="cccccccccsssss" />
    <path
       sodipodi:type="arc"
       style="color:#000000;fill:#000000;fill-opacity:1;fill-rule:nonzero;stroke:none;stroke-width:1.5;marker:none;visibility:visible;display:inline;overflow:visible;enable-background:accumulate"
       id="path4081"
       sodipodi:cx="42.393391"
       sodipodi:cy="33.532482"
       sodipodi:rx="18.357262"
       sodipodi:ry="18.357262"
       d="m 60.750652,33.532482 a 18.357262,18.357262 0 1 1 -36.714523,0 18.357262,18.357262 0 1 1 36.714523,0 z"
       transform="matrix(0.81711533,0,0,0.81711533,13.35971,981.45527)" />
    <path
       sodipodi:type="arc"
       style="color:#000000;fill:#ffffff;fill-opacity:1;fill-rule:nonzero;stroke:none;stroke-width:1.5;marker:none;visibility:visible;display:inline;overflow:visible;enable-background:accumulate"
       id="path4151"
       sodipodi:cx="55.331104"
       sodipodi:cy="50.391613"
       sodipodi:rx="4.5961943"
       sodipodi:ry="4.9497476"
       d="m 59.927299,50.391613 a 4.5961943,4.9497476 0 1 1 -9.192389,0 4.5961943,4.9497476 0 1 1 9.192389,0 z"
       transform="matrix(0.54392827,0,0,0.50507626,44.992311,969.79483)" />
    <rect
       style="color:#000000;fill:#000000;fill-opacity:1;fill-rule:nonzero;stroke:none;stroke-width:1.5;marker:none;visibility:visible;display:inline;overflow:visible;enable-background:accumulate"
       id="rect4171"
       width="15.501034"
       height="6.1730051"
       x="-242.20618"
       y="946.90228"
       transform="matrix(0.96937115,-0.24560045,0.25371303,0.96727953,0,0)" />
  </g>
</svg>
