<?xml version="1.0" encoding="UTF-8" standalone="no"?>
<!-- Created with Inkscape (http://www.inkscape.org/) -->

<svg
   xmlns:dc="http://purl.org/dc/elements/1.1/"
   xmlns:cc="http://creativecommons.org/ns#"
   xmlns:rdf="http://www.w3.org/1999/02/22-rdf-syntax-ns#"
   xmlns:svg="http://www.w3.org/2000/svg"
   xmlns="http://www.w3.org/2000/svg"
   xmlns:sodipodi="http://sodipodi.sourceforge.net/DTD/sodipodi-0.dtd"
   xmlns:inkscape="http://www.inkscape.org/namespaces/inkscape"
   width="96"
   height="96"
   id="svg2"
   version="1.1"
   inkscape:version="0.48.4 r9939"
   sodipodi:docname="picture.svg">
  <defs
     id="defs4" />
  <sodipodi:namedview
     id="base"
     pagecolor="#ffffff"
     bordercolor="#666666"
     borderopacity="1.0"
     inkscape:pageopacity="0.0"
     inkscape:pageshadow="2"
     inkscape:zoom="4"
     inkscape:cx="38.379008"
     inkscape:cy="55.814606"
     inkscape:document-units="px"
     inkscape:current-layer="layer1"
     showgrid="false"
     inkscape:window-width="1366"
     inkscape:window-height="707"
     inkscape:window-x="0"
     inkscape:window-y="25"
     inkscape:window-maximized="1" />
  <metadata
     id="metadata7">
    <rdf:RDF>
      <cc:Work
         rdf:about="">
        <dc:format>image/svg+xml</dc:format>
        <dc:type
           rdf:resource="http://purl.org/dc/dcmitype/StillImage" />
        <dc:title></dc:title>
      </cc:Work>
    </rdf:RDF>
  </metadata>
  <g
     inkscape:label="Layer 1"
     inkscape:groupmode="layer"
     id="layer1"
     transform="translate(0,-956.36218)">
    <path
       style="color:#000000;fill:#000000;fill-opacity:1;stroke:#000000;stroke-width:1.49999988;stroke-linecap:butt;stroke-linejoin:round;stroke-miterlimit:0;stroke-opacity:1;stroke-dasharray:none;stroke-dashoffset:0;marker:none;visibility:visible;display:inline;overflow:visible;enable-background:accumulate"
       d="M 32.9375 20.5 L 29.34375 29.1875 L 3.75 35.5 L 3.75 82 L 92.25 82 L 92.25 35.125 L 68.15625 29.1875 L 64.5625 20.5 L 32.9375 20.5 z M 48 32.75 C 60.702549 32.75 71 43.047451 71 55.75 C 71 68.452549 60.702549 78.75 48 78.75 C 35.297451 78.75 25 68.452549 25 55.75 C 25 43.047451 35.297451 32.75 48 32.75 z "
       transform="translate(0,956.36218)"
       id="rect4079" />
    <path
       sodipodi:type="arc"
       style="color:#000000;fill:#000000;fill-opacity:1;fill-rule:nonzero;stroke:none;stroke-width:1.5;marker:none;visibility:visible;display:inline;overflow:visible;enable-background:accumulate"
       id="path4081"
       sodipodi:cx="42.393391"
       sodipodi:cy="33.532482"
       sodipodi:rx="18.357262"
       sodipodi:ry="18.357262"
       d="m 60.750652,33.532482 a 18.357262,18.357262 0 1 1 -36.714523,0 18.357262,18.357262 0 1 1 36.714523,0 z"
       transform="matrix(0.9805384,0,0,0.9805384,6.4316525,979.22573)" />
    <path
       sodipodi:type="arc"
       style="color:#000000;fill:#ffffff;fill-opacity:1;fill-rule:nonzero;stroke:none;stroke-width:1.5;marker:none;visibility:visible;display:inline;overflow:visible;enable-background:accumulate"
       id="path4151"
       sodipodi:cx="55.331104"
       sodipodi:cy="50.391613"
       sodipodi:rx="4.5961943"
       sodipodi:ry="4.9497476"
       d="m 59.927299,50.391613 a 4.5961943,4.9497476 0 1 1 -9.192389,0 4.5961943,4.9497476 0 1 1 9.192389,0 z"
       transform="matrix(0.54392827,0,0,0.50507626,44.992311,973.04483)" />
    <rect
       style="color:#000000;fill:#000000;fill-opacity:1;fill-rule:nonzero;stroke:none;stroke-width:1.5;marker:none;visibility:visible;display:inline;overflow:visible;enable-background:accumulate"
       id="rect4171"
       width="15.5"
       height="4.25"
       x="-210.55333"
       y="960.09052"
       transform="matrix(0.97518627,-0.22138597,0.22138597,0.97518627,0,0)" />
  </g>
</svg>
