<?xml version="1.0" encoding="UTF-8" standalone="no"?>
<!-- Created with Inkscape (http://www.inkscape.org/) -->

<svg
   xmlns:dc="http://purl.org/dc/elements/1.1/"
   xmlns:cc="http://creativecommons.org/ns#"
   xmlns:rdf="http://www.w3.org/1999/02/22-rdf-syntax-ns#"
   xmlns:svg="http://www.w3.org/2000/svg"
   xmlns="http://www.w3.org/2000/svg"
   xmlns:sodipodi="http://sodipodi.sourceforge.net/DTD/sodipodi-0.dtd"
   xmlns:inkscape="http://www.inkscape.org/namespaces/inkscape"
   width="96"
   height="96"
   id="svg2"
   version="1.1"
   inkscape:version="0.48.4 r9939"
   sodipodi:docname="qr.svg">
  <defs
     id="defs4" />
  <sodipodi:namedview
     id="base"
     pagecolor="#ffffff"
     bordercolor="#666666"
     borderopacity="1.0"
     inkscape:pageopacity="0.0"
     inkscape:pageshadow="2"
     inkscape:zoom="4"
     inkscape:cx="38.379008"
     inkscape:cy="55.814606"
     inkscape:document-units="px"
     inkscape:current-layer="layer1"
     showgrid="false"
     inkscape:window-width="1366"
     inkscape:window-height="707"
     inkscape:window-x="0"
     inkscape:window-y="25"
     inkscape:window-maximized="1" />
  <metadata
     id="metadata7">
    <rdf:RDF>
      <cc:Work
         rdf:about="">
        <dc:format>image/svg+xml</dc:format>
        <dc:type
           rdf:resource="http://purl.org/dc/dcmitype/StillImage" />
        <dc:title></dc:title>
      </cc:Work>
    </rdf:RDF>
  </metadata>
  <g
     inkscape:label="Layer 1"
     inkscape:groupmode="layer"
     id="layer1"
     transform="translate(0,-956.36218)">
    <g
       id="g4354"
       transform="matrix(1.0714286,0,0,1.0714286,3,959.36218)">
      <rect
         id="rect4343"
         height="84"
         width="84"
         y="0"
         x="0"
         style="fill:#ffffff;fill-opacity:1" />
      <g
         id="elements">
        <path
           id="path4346"
           d="M 0,0 4,0 4,4 0,4 z M 4,0 8,0 8,4 4,4 z m 4,0 4,0 0,4 -4,0 z m 4,0 4,0 0,4 -4,0 z m 4,0 4,0 0,4 -4,0 z m 4,0 4,0 0,4 -4,0 z m 4,0 4,0 0,4 -4,0 z m 12,0 4,0 0,4 -4,0 z m 12,0 4,0 0,4 -4,0 z m 8,0 4,0 0,4 -4,0 z m 4,0 4,0 0,4 -4,0 z m 4,0 4,0 0,4 -4,0 z m 4,0 4,0 0,4 -4,0 z m 4,0 4,0 0,4 -4,0 z m 4,0 4,0 0,4 -4,0 z m 4,0 4,0 0,4 -4,0 z M 0,4 4,4 4,8 0,8 z m 24,0 4,0 0,4 -4,0 z m 8,0 4,0 0,4 -4,0 z m 12,0 4,0 0,4 -4,0 z m 12,0 4,0 0,4 -4,0 z m 24,0 4,0 0,4 -4,0 z M 0,8 4,8 4,12 0,12 z m 8,0 4,0 0,4 -4,0 z m 4,0 4,0 0,4 -4,0 z m 4,0 4,0 0,4 -4,0 z m 8,0 4,0 0,4 -4,0 z m 12,0 4,0 0,4 -4,0 z m 20,0 4,0 0,4 -4,0 z m 8,0 4,0 0,4 -4,0 z m 4,0 4,0 0,4 -4,0 z m 4,0 4,0 0,4 -4,0 z m 8,0 4,0 0,4 -4,0 z m -80,4 4,0 0,4 -4,0 z m 8,0 4,0 0,4 -4,0 z m 4,0 4,0 0,4 -4,0 z m 4,0 4,0 0,4 -4,0 z m 8,0 4,0 0,4 -4,0 z m 8,0 4,0 0,4 -4,0 z m 12,0 4,0 0,4 -4,0 z m 12,0 4,0 0,4 -4,0 z m 8,0 4,0 0,4 -4,0 z m 4,0 4,0 0,4 -4,0 z m 4,0 4,0 0,4 -4,0 z m 8,0 4,0 0,4 -4,0 z m -80,4 4,0 0,4 -4,0 z m 8,0 4,0 0,4 -4,0 z m 4,0 4,0 0,4 -4,0 z m 4,0 4,0 0,4 -4,0 z m 8,0 4,0 0,4 -4,0 z m 16,0 4,0 0,4 -4,0 z m 4,0 4,0 0,4 -4,0 z m 4,0 4,0 0,4 -4,0 z m 8,0 4,0 0,4 -4,0 z m 8,0 4,0 0,4 -4,0 z m 4,0 4,0 0,4 -4,0 z m 4,0 4,0 0,4 -4,0 z m 8,0 4,0 0,4 -4,0 z m -80,4 4,0 0,4 -4,0 z m 24,0 4,0 0,4 -4,0 z m 8,0 4,0 0,4 -4,0 z m 4,0 4,0 0,4 -4,0 z m 4,0 4,0 0,4 -4,0 z m 8,0 4,0 0,4 -4,0 z m 8,0 4,0 0,4 -4,0 z m 24,0 4,0 0,4 -4,0 z m -80,4 4,0 0,4 -4,0 z m 4,0 4,0 0,4 -4,0 z m 4,0 4,0 0,4 -4,0 z m 4,0 4,0 0,4 -4,0 z m 4,0 4,0 0,4 -4,0 z m 4,0 4,0 0,4 -4,0 z m 4,0 4,0 0,4 -4,0 z m 8,0 4,0 0,4 -4,0 z m 8,0 4,0 0,4 -4,0 z m 8,0 4,0 0,4 -4,0 z m 8,0 4,0 0,4 -4,0 z m 4,0 4,0 0,4 -4,0 z m 4,0 4,0 0,4 -4,0 z m 4,0 4,0 0,4 -4,0 z m 4,0 4,0 0,4 -4,0 z m 4,0 4,0 0,4 -4,0 z m 4,0 4,0 0,4 -4,0 z m -40,4 4,0 0,4 -4,0 z m 4,0 4,0 0,4 -4,0 z m 4,0 4,0 0,4 -4,0 z m -48,4 4,0 0,4 -4,0 z m 4,0 4,0 0,4 -4,0 z m 4,0 4,0 0,4 -4,0 z m 4,0 4,0 0,4 -4,0 z m 4,0 4,0 0,4 -4,0 z m 8,0 4,0 0,4 -4,0 z m 4,0 4,0 0,4 -4,0 z m 4,0 4,0 0,4 -4,0 z m 4,0 4,0 0,4 -4,0 z m 12,0 4,0 0,4 -4,0 z m 4,0 4,0 0,4 -4,0 z m 8,0 4,0 0,4 -4,0 z m 8,0 4,0 0,4 -4,0 z m 8,0 4,0 0,4 -4,0 z m -76,4 4,0 0,4 -4,0 z m 8,0 4,0 0,4 -4,0 z m 12,0 4,0 0,4 -4,0 z m 20,0 4,0 0,4 -4,0 z m 8,0 4,0 0,4 -4,0 z m 12,0 4,0 0,4 -4,0 z m 20,0 4,0 0,4 -4,0 z m -76,4 4,0 0,4 -4,0 z m 16,0 4,0 0,4 -4,0 z m 4,0 4,0 0,4 -4,0 z m 4,0 4,0 0,4 -4,0 z m 12,0 4,0 0,4 -4,0 z m 4,0 4,0 0,4 -4,0 z m 8,0 4,0 0,4 -4,0 z m 12,0 4,0 0,4 -4,0 z m 4,0 4,0 0,4 -4,0 z m 4,0 4,0 0,4 -4,0 z m 4,0 4,0 0,4 -4,0 z m -76,4 4,0 0,4 -4,0 z m 4,0 4,0 0,4 -4,0 z m 4,0 4,0 0,4 -4,0 z m 4,0 4,0 0,4 -4,0 z m 8,0 4,0 0,4 -4,0 z m 8,0 4,0 0,4 -4,0 z m 32,0 4,0 0,4 -4,0 z m 4,0 4,0 0,4 -4,0 z m 8,0 4,0 0,4 -4,0 z m -72,4 4,0 0,4 -4,0 z m 8,0 4,0 0,4 -4,0 z m 8,0 4,0 0,4 -4,0 z m 4,0 4,0 0,4 -4,0 z m 4,0 4,0 0,4 -4,0 z m 12,0 4,0 0,4 -4,0 z m 8,0 4,0 0,4 -4,0 z m 8,0 4,0 0,4 -4,0 z m 12,0 4,0 0,4 -4,0 z m 8,0 4,0 0,4 -4,0 z m 8,0 4,0 0,4 -4,0 z m -48,4 4,0 0,4 -4,0 z m 8,0 4,0 0,4 -4,0 z m 4,0 4,0 0,4 -4,0 z m 4,0 4,0 0,4 -4,0 z m 4,0 4,0 0,4 -4,0 z m 4,0 4,0 0,4 -4,0 z m 12,0 4,0 0,4 -4,0 z m 12,0 4,0 0,4 -4,0 z m -80,4 4,0 0,4 -4,0 z m 4,0 4,0 0,4 -4,0 z m 4,0 4,0 0,4 -4,0 z m 4,0 4,0 0,4 -4,0 z m 4,0 4,0 0,4 -4,0 z m 4,0 4,0 0,4 -4,0 z m 4,0 4,0 0,4 -4,0 z m 8,0 4,0 0,4 -4,0 z m 16,0 4,0 0,4 -4,0 z m 8,0 4,0 0,4 -4,0 z m 4,0 4,0 0,4 -4,0 z m 16,0 4,0 0,4 -4,0 z m -76,4 4,0 0,4 -4,0 z m 24,0 4,0 0,4 -4,0 z m 12,0 4,0 0,4 -4,0 z m 4,0 4,0 0,4 -4,0 z m 4,0 4,0 0,4 -4,0 z m 4,0 4,0 0,4 -4,0 z m 4,0 4,0 0,4 -4,0 z m 4,0 4,0 0,4 -4,0 z m 12,0 4,0 0,4 -4,0 z m 12,0 4,0 0,4 -4,0 z m -80,4 4,0 0,4 -4,0 z m 8,0 4,0 0,4 -4,0 z m 4,0 4,0 0,4 -4,0 z m 4,0 4,0 0,4 -4,0 z m 8,0 4,0 0,4 -4,0 z m 8,0 4,0 0,4 -4,0 z m 8,0 4,0 0,4 -4,0 z m 8,0 4,0 0,4 -4,0 z m 12,0 4,0 0,4 -4,0 z m 12,0 4,0 0,4 -4,0 z m -72,4 4,0 0,4 -4,0 z m 8,0 4,0 0,4 -4,0 z m 4,0 4,0 0,4 -4,0 z m 4,0 4,0 0,4 -4,0 z m 8,0 4,0 0,4 -4,0 z m 8,0 4,0 0,4 -4,0 z m 4,0 4,0 0,4 -4,0 z m 12,0 4,0 0,4 -4,0 z m 12,0 4,0 0,4 -4,0 z m 12,0 4,0 0,4 -4,0 z m -72,4 4,0 0,4 -4,0 z m 8,0 4,0 0,4 -4,0 z m 4,0 4,0 0,4 -4,0 z m 4,0 4,0 0,4 -4,0 z m 8,0 4,0 0,4 -4,0 z m 8,0 4,0 0,4 -4,0 z m 12,0 4,0 0,4 -4,0 z m 8,0 4,0 0,4 -4,0 z m 12,0 4,0 0,4 -4,0 z m 4,0 4,0 0,4 -4,0 z m 4,0 4,0 0,4 -4,0 z m -72,4 4,0 0,4 -4,0 z m 24,0 4,0 0,4 -4,0 z m 8,0 4,0 0,4 -4,0 z m 4,0 4,0 0,4 -4,0 z m 24,0 4,0 0,4 -4,0 z m 4,0 4,0 0,4 -4,0 z m 8,0 4,0 0,4 -4,0 z m -72,4 4,0 0,4 -4,0 z m 4,0 4,0 0,4 -4,0 z m 4,0 4,0 0,4 -4,0 z m 4,0 4,0 0,4 -4,0 z m 4,0 4,0 0,4 -4,0 z m 4,0 4,0 0,4 -4,0 z m 4,0 4,0 0,4 -4,0 z m 8,0 4,0 0,4 -4,0 z m 4,0 4,0 0,4 -4,0 z m 4,0 4,0 0,4 -4,0 z m 4,0 4,0 0,4 -4,0 z m 8,0 4,0 0,4 -4,0 z m 12,0 4,0 0,4 -4,0 z m 4,0 4,0 0,4 -4,0 z m 4,0 4,0 0,4 -4,0 z m 4,0 4,0 0,4 -4,0 z"
           style="fill:#000000"
           inkscape:connector-curvature="0" />
      </g>
    </g>
  </g>
</svg>
