<?xml version="1.0" encoding="UTF-8" standalone="no"?>
<!-- Created with Inkscape (http://www.inkscape.org/) -->

<svg
   xmlns:dc="http://purl.org/dc/elements/1.1/"
   xmlns:cc="http://creativecommons.org/ns#"
   xmlns:rdf="http://www.w3.org/1999/02/22-rdf-syntax-ns#"
   xmlns:svg="http://www.w3.org/2000/svg"
   xmlns="http://www.w3.org/2000/svg"
   xmlns:sodipodi="http://sodipodi.sourceforge.net/DTD/sodipodi-0.dtd"
   xmlns:inkscape="http://www.inkscape.org/namespaces/inkscape"
   width="96"
   height="96"
   id="svg2"
   version="1.1"
   inkscape:version="0.48.4 r9939"
   sodipodi:docname="qr.svg"
   inkscape:export-filename="/home/ekow/Projects/simpaprint/new_editor/images/qr.png"
   inkscape:export-xdpi="45"
   inkscape:export-ydpi="45">
  <defs
     id="defs4" />
  <sodipodi:namedview
     id="base"
     pagecolor="#ffffff"
     bordercolor="#666666"
     borderopacity="1.0"
     inkscape:pageopacity="0.0"
     inkscape:pageshadow="2"
     inkscape:zoom="2.8284271"
     inkscape:cx="38.379008"
     inkscape:cy="55.814606"
     inkscape:document-units="px"
     inkscape:current-layer="g4354"
     showgrid="false"
     inkscape:window-width="1366"
     inkscape:window-height="707"
     inkscape:window-x="0"
     inkscape:window-y="25"
     inkscape:window-maximized="1" />
  <metadata
     id="metadata7">
    <rdf:RDF>
      <cc:Work
         rdf:about="">
        <dc:format>image/svg+xml</dc:format>
        <dc:type
           rdf:resource="http://purl.org/dc/dcmitype/StillImage" />
        <dc:title></dc:title>
      </cc:Work>
    </rdf:RDF>
  </metadata>
  <g
     inkscape:label="Layer 1"
     inkscape:groupmode="layer"
     id="layer1"
     transform="translate(0,-956.36218)">
    <g
       id="g4354"
       transform="matrix(1.0714286,0,0,1.0714286,3,959.36218)">
      <g
         id="elements"
         transform="matrix(0.88372093,0,0,0.88372093,4.8837209,4.8837209)">
        <path
           id="path4346"
           d="m 1.8666666,1.8666665 3.8222221,0 0,3.8222221 -3.8222221,0 z m 3.8222221,0 3.8222221,0 0,3.8222221 -3.8222221,0 z m 3.8222221,0 3.8222222,0 0,3.8222221 -3.8222222,0 z m 3.8222222,0 3.822222,0 0,3.8222221 -3.822222,0 z m 3.822222,0 3.822222,0 0,3.8222221 -3.822222,0 z m 3.822222,0 3.822223,0 0,3.8222221 -3.822223,0 z m 3.822223,0 3.822222,0 0,3.8222221 -3.822222,0 z m 11.466666,0 3.822222,0 0,3.8222221 -3.822222,0 z m 11.466666,0 3.822222,0 0,3.8222221 -3.822222,0 z m 7.644444,0 3.822223,0 0,3.8222221 -3.822223,0 z m 3.822223,0 3.822222,0 0,3.8222221 -3.822222,0 z m 3.822222,0 3.822222,0 0,3.8222221 -3.822222,0 z m 3.822222,0 3.822222,0 0,3.8222221 -3.822222,0 z m 3.822222,0 3.822222,0 0,3.8222221 -3.822222,0 z m 3.822222,0 3.822222,0 0,3.8222221 -3.822222,0 z m 3.822222,0 3.822222,0 0,3.8222221 -3.822222,0 z m -76.4444424,3.8222221 3.8222221,0 0,3.8222221 -3.8222221,0 z m 22.9333334,0 3.822222,0 0,3.8222221 -3.822222,0 z m 7.644444,0 3.822222,0 0,3.8222221 -3.822222,0 z m 11.466666,0 3.822222,0 0,3.8222221 -3.822222,0 z m 11.466666,0 3.822223,0 0,3.8222221 -3.822223,0 z m 22.933333,0 3.822222,0 0,3.8222221 -3.822222,0 z m -76.4444424,3.8222221 3.8222221,0 0,3.8222223 -3.8222221,0 z m 7.6444442,0 3.8222222,0 0,3.8222223 -3.8222222,0 z m 3.8222222,0 3.822222,0 0,3.8222223 -3.822222,0 z m 3.822222,0 3.822222,0 0,3.8222223 -3.822222,0 z m 7.644445,0 3.822222,0 0,3.8222223 -3.822222,0 z m 11.466666,0 3.822222,0 0,3.8222223 -3.822222,0 z m 19.11111,0 3.822223,0 0,3.8222223 -3.822223,0 z m 7.644445,0 3.822222,0 0,3.8222223 -3.822222,0 z m 3.822222,0 3.822222,0 0,3.8222223 -3.822222,0 z m 3.822222,0 3.822222,0 0,3.8222223 -3.822222,0 z m 7.644444,0 3.822222,0 0,3.8222223 -3.822222,0 z m -76.4444424,3.8222223 3.8222221,0 0,3.822222 -3.8222221,0 z m 7.6444442,0 3.8222222,0 0,3.822222 -3.8222222,0 z m 3.8222222,0 3.822222,0 0,3.822222 -3.822222,0 z m 3.822222,0 3.822222,0 0,3.822222 -3.822222,0 z m 7.644445,0 3.822222,0 0,3.822222 -3.822222,0 z m 7.644444,0 3.822222,0 0,3.822222 -3.822222,0 z m 11.466666,0 3.822222,0 0,3.822222 -3.822222,0 z m 11.466666,0 3.822223,0 0,3.822222 -3.822223,0 z m 7.644445,0 3.822222,0 0,3.822222 -3.822222,0 z m 3.822222,0 3.822222,0 0,3.822222 -3.822222,0 z m 3.822222,0 3.822222,0 0,3.822222 -3.822222,0 z m 7.644444,0 3.822222,0 0,3.822222 -3.822222,0 z m -76.4444424,3.822222 3.8222221,0 0,3.822222 -3.8222221,0 z m 7.6444442,0 3.8222222,0 0,3.822222 -3.8222222,0 z m 3.8222222,0 3.822222,0 0,3.822222 -3.822222,0 z m 3.822222,0 3.822222,0 0,3.822222 -3.822222,0 z m 7.644445,0 3.822222,0 0,3.822222 -3.822222,0 z m 15.288888,0 3.822222,0 0,3.822222 -3.822222,0 z m 3.822222,0 3.822222,0 0,3.822222 -3.822222,0 z m 3.822222,0 3.822222,0 0,3.822222 -3.822222,0 z m 7.644444,0 3.822223,0 0,3.822222 -3.822223,0 z m 7.644445,0 3.822222,0 0,3.822222 -3.822222,0 z m 3.822222,0 3.822222,0 0,3.822222 -3.822222,0 z m 3.822222,0 3.822222,0 0,3.822222 -3.822222,0 z m 7.644444,0 3.822222,0 0,3.822222 -3.822222,0 z m -76.4444424,3.822222 3.8222221,0 0,3.822222 -3.8222221,0 z m 22.9333334,0 3.822222,0 0,3.822222 -3.822222,0 z m 7.644444,0 3.822222,0 0,3.822222 -3.822222,0 z m 3.822222,0 3.822222,0 0,3.822222 -3.822222,0 z m 3.822222,0 3.822222,0 0,3.822222 -3.822222,0 z m 7.644444,0 3.822222,0 0,3.822222 -3.822222,0 z m 7.644444,0 3.822223,0 0,3.822222 -3.822223,0 z m 22.933333,0 3.822222,0 0,3.822222 -3.822222,0 z m -76.4444424,3.822222 3.8222221,0 0,3.822222 -3.8222221,0 z m 3.8222221,0 3.8222221,0 0,3.822222 -3.8222221,0 z m 3.8222221,0 3.8222222,0 0,3.822222 -3.8222222,0 z m 3.8222222,0 3.822222,0 0,3.822222 -3.822222,0 z m 3.822222,0 3.822222,0 0,3.822222 -3.822222,0 z m 3.822222,0 3.822223,0 0,3.822222 -3.822223,0 z m 3.822223,0 3.822222,0 0,3.822222 -3.822222,0 z m 7.644444,0 3.822222,0 0,3.822222 -3.822222,0 z m 7.644444,0 3.822222,0 0,3.822222 -3.822222,0 z m 7.644444,0 3.822222,0 0,3.822222 -3.822222,0 z m 7.644444,0 3.822223,0 0,3.822222 -3.822223,0 z m 3.822223,0 3.822222,0 0,3.822222 -3.822222,0 z m 3.822222,0 3.822222,0 0,3.822222 -3.822222,0 z m 3.822222,0 3.822222,0 0,3.822222 -3.822222,0 z m 3.822222,0 3.822222,0 0,3.822222 -3.822222,0 z m 3.822222,0 3.822222,0 0,3.822222 -3.822222,0 z m 3.822222,0 3.822222,0 0,3.822222 -3.822222,0 z m -38.222221,3.822222 3.822222,0 0,3.822222 -3.822222,0 z m 3.822222,0 3.822222,0 0,3.822222 -3.822222,0 z m 3.822222,0 3.822222,0 0,3.822222 -3.822222,0 z m -45.8666654,3.822222 3.8222221,0 0,3.822223 -3.8222221,0 z m 3.8222221,0 3.8222221,0 0,3.822223 -3.8222221,0 z m 3.8222221,0 3.8222222,0 0,3.822223 -3.8222222,0 z m 3.8222222,0 3.822222,0 0,3.822223 -3.822222,0 z m 3.822222,0 3.822222,0 0,3.822223 -3.822222,0 z m 7.644445,0 3.822222,0 0,3.822223 -3.822222,0 z m 3.822222,0 3.822222,0 0,3.822223 -3.822222,0 z m 3.822222,0 3.822222,0 0,3.822223 -3.822222,0 z m 3.822222,0 3.822222,0 0,3.822223 -3.822222,0 z m 11.466666,0 3.822222,0 0,3.822223 -3.822222,0 z m 3.822222,0 3.822222,0 0,3.822223 -3.822222,0 z m 7.644445,0 3.822222,0 0,3.822223 -3.822222,0 z m 7.644444,0 3.822222,0 0,3.822223 -3.822222,0 z m 7.644444,0 3.822222,0 0,3.822223 -3.822222,0 z m -72.6222204,3.822223 3.8222221,0 0,3.822222 -3.8222221,0 z m 7.6444442,0 3.8222222,0 0,3.822222 -3.8222222,0 z m 11.4666662,0 3.822223,0 0,3.822222 -3.822223,0 z m 19.111111,0 3.822222,0 0,3.822222 -3.822222,0 z m 7.644444,0 3.822222,0 0,3.822222 -3.822222,0 z m 11.466667,0 3.822222,0 0,3.822222 -3.822222,0 z m 19.11111,0 3.822222,0 0,3.822222 -3.822222,0 z m -72.6222203,3.822222 3.8222221,0 0,3.822222 -3.8222221,0 z m 15.2888883,0 3.822223,0 0,3.822222 -3.822223,0 z m 3.822223,0 3.822222,0 0,3.822222 -3.822222,0 z m 3.822222,0 3.822222,0 0,3.822222 -3.822222,0 z m 11.466666,0 3.822222,0 0,3.822222 -3.822222,0 z m 3.822222,0 3.822222,0 0,3.822222 -3.822222,0 z m 7.644444,0 3.822222,0 0,3.822222 -3.822222,0 z m 11.466667,0 3.822222,0 0,3.822222 -3.822222,0 z m 3.822222,0 3.822222,0 0,3.822222 -3.822222,0 z m 3.822222,0 3.822222,0 0,3.822222 -3.822222,0 z m 3.822222,0 3.822222,0 0,3.822222 -3.822222,0 z m -72.6222204,3.822222 3.8222221,0 0,3.822222 -3.8222221,0 z m 3.8222221,0 3.8222221,0 0,3.822222 -3.8222221,0 z m 3.8222221,0 3.8222222,0 0,3.822222 -3.8222222,0 z m 3.8222222,0 3.822222,0 0,3.822222 -3.822222,0 z m 7.644444,0 3.822223,0 0,3.822222 -3.822223,0 z m 7.644445,0 3.822222,0 0,3.822222 -3.822222,0 z m 30.577777,0 3.822222,0 0,3.822222 -3.822222,0 z m 3.822222,0 3.822222,0 0,3.822222 -3.822222,0 z m 7.644444,0 3.822222,0 0,3.822222 -3.822222,0 z m -68.7999984,3.822222 3.8222221,0 0,3.822222 -3.8222221,0 z m 7.6444442,0 3.8222222,0 0,3.822222 -3.8222222,0 z m 7.6444442,0 3.822222,0 0,3.822222 -3.822222,0 z m 3.822222,0 3.822223,0 0,3.822222 -3.822223,0 z m 3.822223,0 3.822222,0 0,3.822222 -3.822222,0 z m 11.466666,0 3.822222,0 0,3.822222 -3.822222,0 z m 7.644444,0 3.822222,0 0,3.822222 -3.822222,0 z m 7.644444,0 3.822222,0 0,3.822222 -3.822222,0 z m 11.466667,0 3.822222,0 0,3.822222 -3.822222,0 z m 7.644444,0 3.822222,0 0,3.822222 -3.822222,0 z m 7.644444,0 3.822222,0 0,3.822222 -3.822222,0 z m -45.866665,3.822222 3.822222,0 0,3.822222 -3.822222,0 z m 7.644444,0 3.822222,0 0,3.822222 -3.822222,0 z m 3.822222,0 3.822222,0 0,3.822222 -3.822222,0 z m 3.822222,0 3.822222,0 0,3.822222 -3.822222,0 z m 3.822222,0 3.822222,0 0,3.822222 -3.822222,0 z m 3.822222,0 3.822223,0 0,3.822222 -3.822223,0 z m 11.466667,0 3.822222,0 0,3.822222 -3.822222,0 z m 11.466666,0 3.822222,0 0,3.822222 -3.822222,0 z m -76.4444424,3.822222 3.8222221,0 0,3.822222 -3.8222221,0 z m 3.8222221,0 3.8222221,0 0,3.822222 -3.8222221,0 z m 3.8222221,0 3.8222222,0 0,3.822222 -3.8222222,0 z m 3.8222222,0 3.822222,0 0,3.822222 -3.822222,0 z m 3.822222,0 3.822222,0 0,3.822222 -3.822222,0 z m 3.822222,0 3.822223,0 0,3.822222 -3.822223,0 z m 3.822223,0 3.822222,0 0,3.822222 -3.822222,0 z m 7.644444,0 3.822222,0 0,3.822222 -3.822222,0 z m 15.288888,0 3.822222,0 0,3.822222 -3.822222,0 z m 7.644444,0 3.822223,0 0,3.822222 -3.822223,0 z m 3.822223,0 3.822222,0 0,3.822222 -3.822222,0 z m 15.288888,0 3.822222,0 0,3.822222 -3.822222,0 z m -72.6222204,3.822222 3.8222221,0 0,3.822222 -3.8222221,0 z m 22.9333334,0 3.822222,0 0,3.822222 -3.822222,0 z m 11.466666,0 3.822222,0 0,3.822222 -3.822222,0 z m 3.822222,0 3.822222,0 0,3.822222 -3.822222,0 z m 3.822222,0 3.822222,0 0,3.822222 -3.822222,0 z m 3.822222,0 3.822222,0 0,3.822222 -3.822222,0 z m 3.822222,0 3.822222,0 0,3.822222 -3.822222,0 z m 3.822222,0 3.822223,0 0,3.822222 -3.822223,0 z m 11.466667,0 3.822222,0 0,3.822222 -3.822222,0 z m 11.466666,0 3.822222,0 0,3.822222 -3.822222,0 z m -76.4444424,3.822222 3.8222221,0 0,3.822223 -3.8222221,0 z m 7.6444442,0 3.8222222,0 0,3.822223 -3.8222222,0 z m 3.8222222,0 3.822222,0 0,3.822223 -3.822222,0 z m 3.822222,0 3.822222,0 0,3.822223 -3.822222,0 z m 7.644445,0 3.822222,0 0,3.822223 -3.822222,0 z m 7.644444,0 3.822222,0 0,3.822223 -3.822222,0 z m 7.644444,0 3.822222,0 0,3.822223 -3.822222,0 z m 7.644444,0 3.822222,0 0,3.822223 -3.822222,0 z m 11.466667,0 3.822222,0 0,3.822223 -3.822222,0 z m 11.466666,0 3.822222,0 0,3.822223 -3.822222,0 z m -68.7999984,3.822223 3.8222221,0 0,3.822222 -3.8222221,0 z m 7.6444442,0 3.8222222,0 0,3.822222 -3.8222222,0 z m 3.8222222,0 3.822222,0 0,3.822222 -3.822222,0 z m 3.822222,0 3.822222,0 0,3.822222 -3.822222,0 z m 7.644445,0 3.822222,0 0,3.822222 -3.822222,0 z m 7.644444,0 3.822222,0 0,3.822222 -3.822222,0 z m 3.822222,0 3.822222,0 0,3.822222 -3.822222,0 z m 11.466666,0 3.822222,0 0,3.822222 -3.822222,0 z m 11.466667,0 3.822222,0 0,3.822222 -3.822222,0 z m 11.466666,0 3.822222,0 0,3.822222 -3.822222,0 z m -68.7999984,3.822222 3.8222221,0 0,3.822222 -3.8222221,0 z m 7.6444442,0 3.8222222,0 0,3.822222 -3.8222222,0 z m 3.8222222,0 3.822222,0 0,3.822222 -3.822222,0 z m 3.822222,0 3.822222,0 0,3.822222 -3.822222,0 z m 7.644445,0 3.822222,0 0,3.822222 -3.822222,0 z m 7.644444,0 3.822222,0 0,3.822222 -3.822222,0 z m 11.466666,0 3.822222,0 0,3.822222 -3.822222,0 z m 7.644444,0 3.822222,0 0,3.822222 -3.822222,0 z m 11.466667,0 3.822222,0 0,3.822222 -3.822222,0 z m 3.822222,0 3.822222,0 0,3.822222 -3.822222,0 z m 3.822222,0 3.822222,0 0,3.822222 -3.822222,0 z m -68.7999984,3.822222 3.8222221,0 0,3.822222 -3.8222221,0 z m 22.9333334,0 3.822222,0 0,3.822222 -3.822222,0 z m 7.644444,0 3.822222,0 0,3.822222 -3.822222,0 z m 3.822222,0 3.822222,0 0,3.822222 -3.822222,0 z m 22.933333,0 3.822222,0 0,3.822222 -3.822222,0 z m 3.822222,0 3.822222,0 0,3.822222 -3.822222,0 z m 7.644444,0 3.822222,0 0,3.822222 -3.822222,0 z m -68.7999984,3.822222 3.8222221,0 0,3.822222 -3.8222221,0 z m 3.8222221,0 3.8222221,0 0,3.822222 -3.8222221,0 z m 3.8222221,0 3.8222222,0 0,3.822222 -3.8222222,0 z m 3.8222222,0 3.822222,0 0,3.822222 -3.822222,0 z m 3.822222,0 3.822222,0 0,3.822222 -3.822222,0 z m 3.822222,0 3.822223,0 0,3.822222 -3.822223,0 z m 3.822223,0 3.822222,0 0,3.822222 -3.822222,0 z m 7.644444,0 3.822222,0 0,3.822222 -3.822222,0 z m 3.822222,0 3.822222,0 0,3.822222 -3.822222,0 z m 3.822222,0 3.822222,0 0,3.822222 -3.822222,0 z m 3.822222,0 3.822222,0 0,3.822222 -3.822222,0 z m 7.644444,0 3.822222,0 0,3.822222 -3.822222,0 z m 11.466667,0 3.822222,0 0,3.822222 -3.822222,0 z m 3.822222,0 3.822222,0 0,3.822222 -3.822222,0 z m 3.822222,0 3.822222,0 0,3.822222 -3.822222,0 z m 3.822222,0 3.822222,0 0,3.822222 -3.822222,0 z"
           style="fill:#000000"
           inkscape:connector-curvature="0" />
      </g>
    </g>
  </g>
</svg>
