<?xml version="1.0" encoding="UTF-8" standalone="no"?>
<!-- Created with Inkscape (http://www.inkscape.org/) -->

<svg
   xmlns:dc="http://purl.org/dc/elements/1.1/"
   xmlns:cc="http://creativecommons.org/ns#"
   xmlns:rdf="http://www.w3.org/1999/02/22-rdf-syntax-ns#"
   xmlns:svg="http://www.w3.org/2000/svg"
   xmlns="http://www.w3.org/2000/svg"
   xmlns:sodipodi="http://sodipodi.sourceforge.net/DTD/sodipodi-0.dtd"
   xmlns:inkscape="http://www.inkscape.org/namespaces/inkscape"
   width="96"
   height="96"
   id="svg2"
   version="1.1"
   inkscape:version="0.48.4 r9939"
   sodipodi:docname="New document 1">
  <defs
     id="defs4" />
  <sodipodi:namedview
     id="base"
     pagecolor="#ffffff"
     bordercolor="#666666"
     borderopacity="1.0"
     inkscape:pageopacity="0.0"
     inkscape:pageshadow="2"
     inkscape:zoom="6.9895833"
     inkscape:cx="22.962742"
     inkscape:cy="48"
     inkscape:document-units="px"
     inkscape:current-layer="layer1"
     showgrid="false"
     inkscape:window-width="1440"
     inkscape:window-height="864"
     inkscape:window-x="0"
     inkscape:window-y="0"
     inkscape:window-maximized="1" />
  <metadata
     id="metadata7">
    <rdf:RDF>
      <cc:Work
         rdf:about="">
        <dc:format>image/svg+xml</dc:format>
        <dc:type
           rdf:resource="http://purl.org/dc/dcmitype/StillImage" />
        <dc:title></dc:title>
      </cc:Work>
    </rdf:RDF>
  </metadata>
  <g
     inkscape:label="Layer 1"
     inkscape:groupmode="layer"
     id="layer1"
     transform="translate(0,-956.36218)">
    <path
       style="color:#000000;fill:#000000;fill-opacity:1;fill-rule:nonzero;stroke:none;stroke-width:10;marker:none;visibility:visible;display:inline;overflow:visible;enable-background:accumulate"
       d="M 48 3 C 23.147186 3 3 23.147186 3 48 C 3 72.852814 23.147186 93 48 93 C 72.852814 93 93 72.852814 93 48 C 93 23.147186 72.852814 3 48 3 z M 48 13.0625 C 55.049287 13.0625 60.75 18.841291 60.75 25.96875 C 60.75 30.954037 57.967713 35.256762 53.875 37.40625 C 65.248557 41.255337 73.71875 56.055935 73.71875 73.71875 L 48 73.71875 L 22.28125 73.71875 C 22.281251 56.055934 30.751442 41.255336 42.125 37.40625 C 38.032287 35.256762 35.25 30.954037 35.25 25.96875 C 35.25 18.841291 40.950713 13.0625 48 13.0625 z "
       transform="translate(0,956.36218)"
       id="path2985" />
    <g
       id="layer1-0"
       inkscape:label="Layer 1"
       transform="matrix(0.6746652,0,0,0.67466753,15.615982,322.39159)"
       style="fill:#ffffff;fill-opacity:1;stroke:none" />
  </g>
</svg>
