<?xml version="1.0" encoding="UTF-8" standalone="no"?>
<!-- Created with Inkscape (http://www.inkscape.org/) -->

<svg
   xmlns:dc="http://purl.org/dc/elements/1.1/"
   xmlns:cc="http://creativecommons.org/ns#"
   xmlns:rdf="http://www.w3.org/1999/02/22-rdf-syntax-ns#"
   xmlns:svg="http://www.w3.org/2000/svg"
   xmlns="http://www.w3.org/2000/svg"
   xmlns:sodipodi="http://sodipodi.sourceforge.net/DTD/sodipodi-0.dtd"
   xmlns:inkscape="http://www.inkscape.org/namespaces/inkscape"
   width="96"
   height="96"
   id="svg2"
   version="1.1"
   inkscape:version="0.48.5 r10040"
   sodipodi:docname="zoom_in.svg"
   inkscape:export-filename="/home/ekow/Projects/paanoo/assets/images/zoom_in.png"
   inkscape:export-xdpi="45"
   inkscape:export-ydpi="45">
  <defs
     id="defs4" />
  <sodipodi:namedview
     id="base"
     pagecolor="#ffffff"
     bordercolor="#666666"
     borderopacity="1.0"
     inkscape:pageopacity="0.0"
     inkscape:pageshadow="2"
     inkscape:zoom="6.7291667"
     inkscape:cx="10.649579"
     inkscape:cy="47.77709"
     inkscape:document-units="px"
     inkscape:current-layer="layer1"
     showgrid="false"
     inkscape:window-width="1600"
     inkscape:window-height="839"
     inkscape:window-x="0"
     inkscape:window-y="25"
     inkscape:window-maximized="1" />
  <metadata
     id="metadata7">
    <rdf:RDF>
      <cc:Work
         rdf:about="">
        <dc:format>image/svg+xml</dc:format>
        <dc:type
           rdf:resource="http://purl.org/dc/dcmitype/StillImage" />
        <dc:title></dc:title>
      </cc:Work>
    </rdf:RDF>
  </metadata>
  <g
     inkscape:label="Layer 1"
     inkscape:groupmode="layer"
     id="layer1"
     transform="translate(0,-956.36218)">
    <path
       style="font-size:medium;font-style:normal;font-variant:normal;font-weight:normal;font-stretch:normal;text-indent:0;text-align:start;text-decoration:none;line-height:normal;letter-spacing:normal;word-spacing:normal;text-transform:none;direction:ltr;block-progression:tb;writing-mode:lr-tb;text-anchor:start;baseline-shift:baseline;color:#000000;fill:#000000;fill-opacity:1;stroke:none;stroke-width:10;marker:none;visibility:visible;display:inline;overflow:visible;enable-background:accumulate;font-family:Sans;-inkscape-font-specification:Sans"
       d="M 34.539524,960.66144 C 16.79287,960.66144 3,974.86964 3,991.55134 c 0,16.68156 13.79287,30.85736 31.539524,30.85736 6.919143,0 13.219572,-2.1621 18.35204,-5.7817 l 31.052302,31.0199 a 5.1975576,5.1975576 0 1 0 7.340816,-7.3408 l -30.987339,-30.9874 c 3.655094,-5.0721 5.781705,-11.218 5.781705,-17.76736 0,-16.6817 -13.792869,-30.8899 -31.539524,-30.8899 z m 0,9.38715 c 11.171865,0 20.853114,9.26593 20.853114,21.50275 0,12.23676 -9.681249,21.47026 -20.853114,21.47026 -11.171865,0 -20.853115,-9.2335 -20.853115,-21.47026 0,-12.23682 9.68125,-21.50275 20.853115,-21.50275 z"
       id="path2985"
       inkscape:connector-curvature="0" />
    <g
       style="font-size:40px;font-style:normal;font-weight:normal;line-height:125%;letter-spacing:0px;word-spacing:0px;fill:#000000;fill-opacity:1;stroke:none;font-family:Sans"
       id="text3766" />
    <path
       style="font-size:medium;font-style:normal;font-variant:normal;font-weight:normal;font-stretch:normal;text-indent:0;text-align:start;text-decoration:none;line-height:normal;letter-spacing:normal;word-spacing:normal;text-transform:none;direction:ltr;block-progression:tb;writing-mode:lr-tb;text-anchor:start;baseline-shift:baseline;color:#000000;fill:#000000;fill-opacity:1;stroke:none;stroke-width:7;marker:none;visibility:visible;display:inline;overflow:visible;enable-background:accumulate;font-family:Sans;-inkscape-font-specification:Sans"
       d="M 34.5625 17.875 A 3.5042176 3.5042176 0 0 0 31 21.5625 L 31 31.71875 L 20.8125 31.71875 A 3.50035 3.50035 0 0 0 20.46875 31.71875 A 3.5042176 3.5042176 0 0 0 20.8125 38.71875 L 31 38.71875 L 31 49.03125 A 3.50035 3.50035 0 1 0 38 49.03125 L 38 38.71875 L 48.28125 38.71875 A 3.50035 3.50035 0 1 0 48.28125 31.71875 L 38 31.71875 L 38 21.5625 A 3.50035 3.50035 0 0 0 38 21.21875 A 3.5042176 3.5042176 0 0 0 34.5625 17.875 z "
       transform="translate(0,956.36218)"
       id="path3000" />
  </g>
</svg>
