<?xml version="1.0" encoding="UTF-8" standalone="no"?>
<!-- Created with Inkscape (http://www.inkscape.org/) -->

<svg
   xmlns:dc="http://purl.org/dc/elements/1.1/"
   xmlns:cc="http://creativecommons.org/ns#"
   xmlns:rdf="http://www.w3.org/1999/02/22-rdf-syntax-ns#"
   xmlns:svg="http://www.w3.org/2000/svg"
   xmlns="http://www.w3.org/2000/svg"
   xmlns:sodipodi="http://sodipodi.sourceforge.net/DTD/sodipodi-0.dtd"
   xmlns:inkscape="http://www.inkscape.org/namespaces/inkscape"
   width="96"
   height="96"
   id="svg2"
   version="1.1"
   inkscape:version="0.48.4 r9939"
   sodipodi:docname="blocked.svg">
  <defs
     id="defs4" />
  <sodipodi:namedview
     id="base"
     pagecolor="#ffffff"
     bordercolor="#666666"
     borderopacity="1.0"
     inkscape:pageopacity="0.0"
     inkscape:pageshadow="2"
     inkscape:zoom="7.1770833"
     inkscape:cx="48"
     inkscape:cy="31.280116"
     inkscape:document-units="px"
     inkscape:current-layer="layer1"
     showgrid="false"
     inkscape:window-width="1440"
     inkscape:window-height="872"
     inkscape:window-x="1366"
     inkscape:window-y="0"
     inkscape:window-maximized="1" />
  <metadata
     id="metadata7">
    <rdf:RDF>
      <cc:Work
         rdf:about="">
        <dc:format>image/svg+xml</dc:format>
        <dc:type
           rdf:resource="http://purl.org/dc/dcmitype/StillImage" />
        <dc:title />
      </cc:Work>
    </rdf:RDF>
  </metadata>
  <g
     inkscape:label="Layer 1"
     inkscape:groupmode="layer"
     id="layer1"
     transform="translate(0,-956.36218)">
    <path
       style="color:#000000;fill:#000000;fill-opacity:1;stroke:none;stroke-width:10;marker:none;visibility:visible;display:inline;overflow:visible;enable-background:accumulate"
       d="m 16.180193,972.54235 c -17.5735901,17.57359 -17.5735911,46.06605 0,63.63965 17.5736,17.5736 46.06602,17.5736 63.63962,0 17.573578,-17.5736 17.573578,-46.06605 0,-63.63965 -17.5736,-17.57359 -46.06603,-17.57359 -63.63962,0 z m 9.87511,9.87511 c 10.22487,-10.22486 25.81324,-11.82462 37.71402,-4.79697 l -42.51099,42.51101 c -7.02765,-11.9008 -5.42789,-27.48917 4.79697,-37.71404 z m 6.17538,48.68634 42.51098,-42.51096 c 7.02766,11.90076 5.4279,27.48916 -4.79697,37.71406 -10.22486,10.2248 -25.81323,11.8246 -37.71401,4.7969 z"
       id="path2985"
       inkscape:connector-curvature="0" />
  </g>
</svg>
