<?xml version="1.0" encoding="UTF-8" standalone="no"?>
<!-- Created with Inkscape (http://www.inkscape.org/) -->

<svg
   xmlns:dc="http://purl.org/dc/elements/1.1/"
   xmlns:cc="http://creativecommons.org/ns#"
   xmlns:rdf="http://www.w3.org/1999/02/22-rdf-syntax-ns#"
   xmlns:svg="http://www.w3.org/2000/svg"
   xmlns="http://www.w3.org/2000/svg"
   xmlns:sodipodi="http://sodipodi.sourceforge.net/DTD/sodipodi-0.dtd"
   xmlns:inkscape="http://www.inkscape.org/namespaces/inkscape"
   width="1106"
   height="1106"
   id="svg2"
   version="1.1"
   inkscape:version="0.48.4 r9939"
   sodipodi:docname="users.svg">
  <defs
     id="defs4" />
  <sodipodi:namedview
     id="base"
     pagecolor="#ffffff"
     bordercolor="#666666"
     borderopacity="1.0"
     inkscape:pageopacity="0.0"
     inkscape:pageshadow="2"
     inkscape:zoom="0.1767767"
     inkscape:cx="-843.26003"
     inkscape:cy="217.14286"
     inkscape:document-units="px"
     inkscape:current-layer="layer1"
     showgrid="false"
     inkscape:window-width="1366"
     inkscape:window-height="718"
     inkscape:window-x="0"
     inkscape:window-y="278"
     inkscape:window-maximized="1" />
  <metadata
     id="metadata7">
    <rdf:RDF>
      <cc:Work
         rdf:about="">
        <dc:format>image/svg+xml</dc:format>
        <dc:type
           rdf:resource="http://purl.org/dc/dcmitype/StillImage" />
        <dc:title></dc:title>
      </cc:Work>
    </rdf:RDF>
  </metadata>
  <g
     inkscape:label="Layer 1"
     inkscape:groupmode="layer"
     id="layer1"
     transform="translate(0,53.63782)">
    <path
       style="color:#000000;fill:#000000;fill-opacity:1;stroke:#000000;stroke-width:0.77841252;stroke-linecap:round;stroke-linejoin:round;stroke-miterlimit:4;stroke-opacity:1;stroke-dasharray:none;stroke-dashoffset:0;marker:none;visibility:visible;display:inline;overflow:visible;enable-background:accumulate"
       d="m 421.13051,77.316733 c -93.71342,0 -169.68856,78.219507 -169.68856,174.678307 0,67.4148 37.10768,125.89297 91.44635,155.00626 C 191.80793,459.22077 79.296829,659.32716 79.296819,898.2396 l 341.833691,0 16.58194,0 C 439.05998,716.27763 522.51907,562.37184 637.83194,508.05756 598.15452,460.00238 551.0175,424.85182 499.37271,407.0013 c 54.33867,-29.11329 91.44635,-87.59146 91.44635,-155.00626 0,-96.4588 -75.97513,-174.678307 -169.68855,-174.678307 z"
       id="path2985"
       inkscape:connector-curvature="0" />
    <path
       style="color:#000000;fill:#000000;fill-opacity:1;stroke:#000000;stroke-width:0.6072855;stroke-linecap:round;stroke-linejoin:round;stroke-miterlimit:4;stroke-opacity:1;stroke-dasharray:none;stroke-dashoffset:0;marker:none;visibility:visible;display:inline;overflow:visible;enable-background:accumulate"
       d="m 768.46431,269.35075 c -73.92666,0 -133.8604,60.35057 -133.8604,134.77378 0,52.00671 29.25858,97.12996 72.11408,119.59572 -119.17025,40.30156 -207.91243,194.69434 -207.91243,379.01702 l 269.65875,0 269.65879,0 c 0,-184.33496 -88.7545,-338.75076 -207.9366,-379.03986 42.85256,-22.46671 72.11414,-67.56831 72.11414,-119.57288 0,-74.42321 -59.90957,-134.77378 -133.83633,-134.77378 z"
       id="path2985-8"
       inkscape:connector-curvature="0" />
  </g>
</svg>
