<?xml version="1.0" encoding="UTF-8" standalone="no"?>
<!-- Created with Inkscape (http://www.inkscape.org/) -->

<svg
   xmlns:dc="http://purl.org/dc/elements/1.1/"
   xmlns:cc="http://creativecommons.org/ns#"
   xmlns:rdf="http://www.w3.org/1999/02/22-rdf-syntax-ns#"
   xmlns:svg="http://www.w3.org/2000/svg"
   xmlns="http://www.w3.org/2000/svg"
   xmlns:sodipodi="http://sodipodi.sourceforge.net/DTD/sodipodi-0.dtd"
   xmlns:inkscape="http://www.inkscape.org/namespaces/inkscape"
   width="96"
   height="96"
   id="svg2"
   version="1.1"
   inkscape:version="0.48.4 r9939"
   sodipodi:docname="component_add.svg"
   inkscape:export-filename="/home/ekow/Projects/kakalika/assets/images/add_component.png"
   inkscape:export-xdpi="30"
   inkscape:export-ydpi="30">
  <defs
     id="defs4" />
  <sodipodi:namedview
     id="base"
     pagecolor="#ffffff"
     bordercolor="#666666"
     borderopacity="1.0"
     inkscape:pageopacity="0.0"
     inkscape:pageshadow="2"
     inkscape:zoom="5.4270833"
     inkscape:cx="35.323368"
     inkscape:cy="47.631478"
     inkscape:document-units="px"
     inkscape:current-layer="layer1"
     showgrid="false"
     inkscape:window-width="1366"
     inkscape:window-height="715"
     inkscape:window-x="0"
     inkscape:window-y="25"
     inkscape:window-maximized="1" />
  <metadata
     id="metadata7">
    <rdf:RDF>
      <cc:Work
         rdf:about="">
        <dc:format>image/svg+xml</dc:format>
        <dc:type
           rdf:resource="http://purl.org/dc/dcmitype/StillImage" />
        <dc:title></dc:title>
      </cc:Work>
    </rdf:RDF>
  </metadata>
  <g
     inkscape:label="Layer 1"
     inkscape:groupmode="layer"
     id="layer1"
     transform="translate(0,-956.36218)">
    <path
       style="fill:#02b01f;fill-opacity:1;stroke:none;stroke-width:0.25260174000000002px;stroke-linecap:butt;stroke-linejoin:miter;stroke-opacity:1"
       d="M 51.28125 3.21875 C 18.467473 3.32016 45.456988 20.16454 38.28125 24.15625 C 31.553763 27.89861 16.631046 18.71271 11.1875 24.15625 C 4.723292 30.62046 5.9213939 44.12105 11.1875 51.59375 C 15.307834 57.44045 32.229975 30.66101 31.40625 58.8125 C 30.582524 86.9641 15.355394 59.595 11.1875 65.3125 C 5.6607026 72.8943 1.9926474 92.6775 11.375 92.6875 C 36.174867 92.703 79.205504 92.95135 90.25 92.84375 C 90.078108 78.41915 90.43057 59.60077 90.375 29.75 C 90.35843 20.84881 73.0186 29.41895 65.1875 25.1875 C 57.849575 21.22252 84.095027 3.11734 51.28125 3.21875 z M 63.875 54.75 L 72.65625 54.75 L 72.65625 66.09375 L 83.96875 66.09375 L 83.96875 74.84375 L 72.65625 74.84375 L 72.65625 86.1875 L 63.875 86.1875 L 63.875 74.84375 L 52.53125 74.84375 L 52.53125 66.09375 L 63.875 66.09375 L 63.875 54.75 z "
       transform="translate(0,956.36218)"
       id="path2985" />
  </g>
</svg>
