<?xml version="1.0" encoding="UTF-8" standalone="no"?>
<!-- Created with Inkscape (http://www.inkscape.org/) -->

<svg
   xmlns:dc="http://purl.org/dc/elements/1.1/"
   xmlns:cc="http://creativecommons.org/ns#"
   xmlns:rdf="http://www.w3.org/1999/02/22-rdf-syntax-ns#"
   xmlns:svg="http://www.w3.org/2000/svg"
   xmlns="http://www.w3.org/2000/svg"
   xmlns:sodipodi="http://sodipodi.sourceforge.net/DTD/sodipodi-0.dtd"
   xmlns:inkscape="http://www.inkscape.org/namespaces/inkscape"
   width="96"
   height="96"
   id="svg2"
   version="1.1"
   inkscape:version="0.48.4 r9939"
   sodipodi:docname="component.svg">
  <defs
     id="defs4" />
  <sodipodi:namedview
     id="base"
     pagecolor="#ffffff"
     bordercolor="#666666"
     borderopacity="1.0"
     inkscape:pageopacity="0.0"
     inkscape:pageshadow="2"
     inkscape:zoom="5.4270833"
     inkscape:cx="35.923932"
     inkscape:cy="48"
     inkscape:document-units="px"
     inkscape:current-layer="layer1"
     showgrid="false"
     inkscape:window-width="1366"
     inkscape:window-height="714"
     inkscape:window-x="0"
     inkscape:window-y="25"
     inkscape:window-maximized="1" />
  <metadata
     id="metadata7">
    <rdf:RDF>
      <cc:Work
         rdf:about="">
        <dc:format>image/svg+xml</dc:format>
        <dc:type
           rdf:resource="http://purl.org/dc/dcmitype/StillImage" />
        <dc:title />
      </cc:Work>
    </rdf:RDF>
  </metadata>
  <g
     inkscape:label="Layer 1"
     inkscape:groupmode="layer"
     id="layer1"
     transform="translate(0,-956.36218)">
    <path
       style="fill:#000000;fill-opacity:1;stroke:#000000;stroke-width:0.25260174px;stroke-linecap:butt;stroke-linejoin:miter;stroke-opacity:1"
       d="m 11.195708,1007.9486 c -5.2661061,-7.4727 -6.464208,-20.9611 0,-27.42531 5.443546,-5.44354 20.367528,3.74236 27.095015,0 7.175738,-3.99171 -19.822828,-20.82844 12.990949,-20.92985 32.813777,-0.10141 6.558998,17.99382 13.896923,21.9588 7.8311,4.23145 25.172254,-4.3328 25.188824,4.56839 0.05557,29.85077 -0.280591,48.66437 -0.108699,63.08897 -11.044496,0.1076 -54.072459,-0.1484 -78.872326,-0.1639 -9.3823526,-0.01 -5.7174834,-19.8027 -0.190686,-27.3845 4.167894,-5.7175 19.384416,21.6561 20.208142,-6.4955 0.823725,-28.15149 -16.087808,-1.3704 -20.208142,-7.2171 z"
       id="path2985"
       inkscape:connector-curvature="0"
       sodipodi:nodetypes="ssszsscsszs" />
  </g>
</svg>
