<?xml version="1.0" encoding="UTF-8" standalone="no"?>
<!-- Created with Inkscape (http://www.inkscape.org/) -->

<svg
   xmlns:dc="http://purl.org/dc/elements/1.1/"
   xmlns:cc="http://creativecommons.org/ns#"
   xmlns:rdf="http://www.w3.org/1999/02/22-rdf-syntax-ns#"
   xmlns:svg="http://www.w3.org/2000/svg"
   xmlns="http://www.w3.org/2000/svg"
   xmlns:sodipodi="http://sodipodi.sourceforge.net/DTD/sodipodi-0.dtd"
   xmlns:inkscape="http://www.inkscape.org/namespaces/inkscape"
   width="96"
   height="96"
   id="svg2"
   version="1.1"
   inkscape:version="0.48.4 r9939"
   sodipodi:docname="high.svg">
  <defs
     id="defs4" />
  <sodipodi:namedview
     id="base"
     pagecolor="#ffffff"
     bordercolor="#666666"
     borderopacity="1.0"
     inkscape:pageopacity="0.0"
     inkscape:pageshadow="2"
     inkscape:zoom="7.1770833"
     inkscape:cx="48"
     inkscape:cy="48"
     inkscape:document-units="px"
     inkscape:current-layer="layer1"
     showgrid="false"
     inkscape:window-width="1440"
     inkscape:window-height="872"
     inkscape:window-x="1366"
     inkscape:window-y="0"
     inkscape:window-maximized="1" />
  <metadata
     id="metadata7">
    <rdf:RDF>
      <cc:Work
         rdf:about="">
        <dc:format>image/svg+xml</dc:format>
        <dc:type
           rdf:resource="http://purl.org/dc/dcmitype/StillImage" />
        <dc:title />
      </cc:Work>
    </rdf:RDF>
  </metadata>
  <g
     inkscape:label="Layer 1"
     inkscape:groupmode="layer"
     id="layer1"
     transform="translate(0,-956.36218)">
    <path
       style="color:#000000;fill:#000000;fill-opacity:1;stroke:none;stroke-width:3;marker:none;visibility:visible;display:inline;overflow:visible;enable-background:accumulate"
       d="M 48 3 C 23.147186 3 3 23.147186 3 48 C 3 72.852814 23.147186 93 48 93 C 72.852814 93 93 72.852814 93 48 C 93 23.147186 72.852814 3 48 3 z M 47.96875 15.71875 C 50.144642 15.71881 52.027476 16.453935 53.625 17.96875 C 55.22248 19.456137 56.031226 21.285481 56.03125 23.40625 C 56.031226 24.535571 55.819374 26.033364 55.40625 27.90625 C 55.020623 29.751688 54.543427 31.931116 53.9375 34.4375 C 53.359072 36.806251 52.681145 39.759467 51.9375 43.3125 C 51.193815 46.838054 50.420027 51.200616 49.59375 56.40625 L 46.40625 56.40625 C 45.579942 51.14553 44.806153 46.748011 44.0625 43.25 C 43.318823 39.752054 42.640896 36.837501 42.0625 34.46875 C 41.53917 32.292883 41.065682 30.159533 40.625 28.09375 C 40.184301 26.000519 39.968742 24.452941 39.96875 23.40625 C 39.968742 21.285481 40.742531 19.456137 42.3125 17.96875 C 43.882449 16.453935 45.765283 15.71881 47.96875 15.71875 z M 48.03125 61.3125 C 50.152056 61.312514 51.99252 62.082596 53.5625 63.625 C 55.15998 65.139884 55.968726 66.937978 55.96875 69.03125 C 55.968726 71.124535 55.15998 72.953878 53.5625 74.46875 C 51.99252 75.95608 50.152056 76.687499 48.03125 76.6875 C 45.882869 76.687499 44.003742 75.95608 42.40625 74.46875 C 40.836281 72.953878 40.062492 71.124535 40.0625 69.03125 C 40.062492 66.937978 40.836281 65.139884 42.40625 63.625 C 44.003742 62.082596 45.882869 61.312514 48.03125 61.3125 z "
       transform="translate(0,956.36218)"
       id="path3024" />
  </g>
</svg>
