<?xml version="1.0" encoding="UTF-8" standalone="no"?>
<!-- Created with Inkscape (http://www.inkscape.org/) -->

<svg
   xmlns:dc="http://purl.org/dc/elements/1.1/"
   xmlns:cc="http://creativecommons.org/ns#"
   xmlns:rdf="http://www.w3.org/1999/02/22-rdf-syntax-ns#"
   xmlns:svg="http://www.w3.org/2000/svg"
   xmlns="http://www.w3.org/2000/svg"
   xmlns:sodipodi="http://sodipodi.sourceforge.net/DTD/sodipodi-0.dtd"
   xmlns:inkscape="http://www.inkscape.org/namespaces/inkscape"
   width="96"
   height="96"
   id="svg2"
   version="1.1"
   inkscape:version="0.48.4 r9939"
   sodipodi:docname="members.svg"
   inkscape:export-filename="/home/ekow/Projects/paanoo/assets/images/contacts.png"
   inkscape:export-xdpi="26.25"
   inkscape:export-ydpi="26.25">
  <defs
     id="defs4" />
  <sodipodi:namedview
     id="base"
     pagecolor="#ffffff"
     bordercolor="#666666"
     borderopacity="1.0"
     inkscape:pageopacity="0.0"
     inkscape:pageshadow="2"
     inkscape:zoom="5.3692911"
     inkscape:cx="33.542209"
     inkscape:cy="46.195752"
     inkscape:document-units="px"
     inkscape:current-layer="layer1"
     showgrid="false"
     inkscape:window-width="1440"
     inkscape:window-height="864"
     inkscape:window-x="0"
     inkscape:window-y="0"
     inkscape:window-maximized="1" />
  <metadata
     id="metadata7">
    <rdf:RDF>
      <cc:Work
         rdf:about="">
        <dc:format>image/svg+xml</dc:format>
        <dc:type
           rdf:resource="http://purl.org/dc/dcmitype/StillImage" />
        <dc:title></dc:title>
      </cc:Work>
    </rdf:RDF>
  </metadata>
  <g
     inkscape:label="Layer 1"
     inkscape:groupmode="layer"
     id="layer1"
     transform="translate(0,-956.36218)">
    <path
       style="color:#000000;fill:#000000;fill-opacity:0.25098040999999999;stroke:none;stroke-width:0.80648856999999985;stroke-linecap:round;stroke-linejoin:round;stroke-miterlimit:4;stroke-opacity:1;stroke-dasharray:none;stroke-dashoffset:0;marker:none;visibility:visible;display:inline;overflow:visible;enable-background:accumulate"
       d="M 41.53125 2.65625 C 31.082679 2.65625 22.625 11.216848 22.625 21.78125 C 22.625 29.170217 26.777842 35.59513 32.84375 38.78125 C 15.980351 44.480817 3.4375008 66.376996 3.4375 92.5625 L 27.125 92.5625 C 26.366533 89.225055 26.768085 85.270736 27.6875 82.375 C 28.968164 69.971874 35.059005 56.804523 45.03125 49.0625 C 36.737875 37.143396 45.113832 17.834637 59.46875 15.71875 C 56.952256 8.1341963 49.878861 2.65625 41.53125 2.65625 z "
       transform="translate(0,956.36218)"
       id="path2985" />
    <path
       style="color:#000000;fill:#000000;fill-opacity:0.25098040999999999;stroke:none;stroke-width:0.80648850999999999;stroke-linecap:round;stroke-linejoin:round;stroke-miterlimit:4;stroke-opacity:1;stroke-dasharray:none;stroke-dashoffset:0;marker:none;visibility:visible;display:inline;overflow:visible;enable-background:accumulate"
       d="m 63.21875,22.28125 c -8.150206,0 -14.75,6.665692 -14.75,14.90625 0,5.766361 3.23348,10.76594 7.96875,13.25 C 43.283056,54.882839 33.500001,71.980264 33.5,92.40625 l 29.71875,0 29.71875,0 C 92.9375,71.980265 83.154443,54.882841 70,50.4375 c 4.73527,-2.48406 7.96875,-7.483639 7.96875,-13.25 0,-8.240558 -6.599794,-14.90625 -14.75,-14.90625 z"
       transform="translate(0,956.36218)"
       id="path2985-0"
       inkscape:connector-curvature="0"
       sodipodi:nodetypes="sscccccss" />
  </g>
</svg>
