<?xml version="1.0" encoding="UTF-8" standalone="no"?>
<!-- Created with Inkscape (http://www.inkscape.org/) -->

<svg
   xmlns:dc="http://purl.org/dc/elements/1.1/"
   xmlns:cc="http://creativecommons.org/ns#"
   xmlns:rdf="http://www.w3.org/1999/02/22-rdf-syntax-ns#"
   xmlns:svg="http://www.w3.org/2000/svg"
   xmlns="http://www.w3.org/2000/svg"
   xmlns:sodipodi="http://sodipodi.sourceforge.net/DTD/sodipodi-0.dtd"
   xmlns:inkscape="http://www.inkscape.org/namespaces/inkscape"
   width="96"
   height="96"
   id="svg2"
   version="1.1"
   inkscape:version="0.48.4 r9939"
   sodipodi:docname="members_add.svg">
  <defs
     id="defs4" />
  <sodipodi:namedview
     id="base"
     pagecolor="#ffffff"
     bordercolor="#666666"
     borderopacity="1.0"
     inkscape:pageopacity="0.0"
     inkscape:pageshadow="2"
     inkscape:zoom="5.3692911"
     inkscape:cx="66.134966"
     inkscape:cy="46.195752"
     inkscape:document-units="px"
     inkscape:current-layer="layer1"
     showgrid="false"
     inkscape:window-width="1440"
     inkscape:window-height="872"
     inkscape:window-x="1366"
     inkscape:window-y="0"
     inkscape:window-maximized="1" />
  <metadata
     id="metadata7">
    <rdf:RDF>
      <cc:Work
         rdf:about="">
        <dc:format>image/svg+xml</dc:format>
        <dc:type
           rdf:resource="http://purl.org/dc/dcmitype/StillImage" />
        <dc:title />
      </cc:Work>
    </rdf:RDF>
  </metadata>
  <g
     inkscape:label="Layer 1"
     inkscape:groupmode="layer"
     id="layer1"
     transform="translate(0,-956.36218)">
    <path
       style="color:#000000;fill:#000000;fill-opacity:1;stroke:#000000;stroke-width:0.80648857;stroke-linecap:round;stroke-linejoin:round;stroke-miterlimit:4;stroke-opacity:1;stroke-dasharray:none;stroke-dashoffset:0;marker:none;visibility:visible;display:inline;overflow:visible;enable-background:accumulate"
       d="M 41.53125 2.65625 C 31.082679 2.65625 22.625 11.216848 22.625 21.78125 C 22.625 29.170217 26.777842 35.59513 32.84375 38.78125 C 15.980351 44.480817 3.4375008 66.376996 3.4375 92.5625 L 27.125 92.5625 C 26.366533 89.225055 26.768085 85.270736 27.6875 82.375 C 28.968164 69.971874 35.059005 56.804523 45.03125 49.0625 C 36.737875 37.143396 45.113832 17.834637 59.46875 15.71875 C 56.952256 8.1341963 49.878861 2.65625 41.53125 2.65625 z "
       transform="translate(0,956.36218)"
       id="path2985" />
    <path
       style="color:#000000;fill:#000000;fill-opacity:1;stroke:#000000;stroke-width:0.80648851;stroke-linecap:round;stroke-linejoin:round;stroke-miterlimit:4;stroke-opacity:1;stroke-dasharray:none;stroke-dashoffset:0;marker:none;visibility:visible;display:inline;overflow:visible;enable-background:accumulate"
       d="M 63.21875 22.28125 C 55.068544 22.28125 48.46875 28.946942 48.46875 37.1875 C 48.46875 42.953861 51.70223 47.95344 56.4375 50.4375 C 43.283056 54.882839 33.500001 71.980264 33.5 92.40625 L 63.21875 92.40625 L 92.9375 92.40625 C 92.9375 71.980265 83.154443 54.882841 70 50.4375 C 74.73527 47.95344 77.96875 42.953861 77.96875 37.1875 C 77.96875 28.946942 71.368956 22.28125 63.21875 22.28125 z M 60.71875 54.71875 L 69.5 54.71875 L 69.5 66.0625 L 80.8125 66.0625 L 80.8125 74.8125 L 69.5 74.8125 L 69.5 86.15625 L 60.71875 86.15625 L 60.71875 74.8125 L 49.375 74.8125 L 49.375 66.0625 L 60.71875 66.0625 L 60.71875 54.71875 z "
       transform="translate(0,956.36218)"
       id="path2985-0" />
  </g>
</svg>
